<svg xmlns="http://www.w3.org/2000/svg" width="190.782" height="135.393"><path d="M17.72 131.148c-6.578-2.828-12.488-7.002-17.72-12.52l6.154-8.913 1.061-1.485 1.273.849c0 .85.245 1.805.743 2.865.494 1.061 1.519 2.371 3.077 3.926 3.677 3.113 8.028 5.591 13.051 7.428 5.02 1.84 10.504 2.759 16.447 2.759 4.383 0 8.382-.667 11.99-2.003 3.608-1.333 6.718-3.196 9.337-5.588a23.517 23.517 0 005.942-8.436c1.343-3.232 2.016-6.678 2.016-10.332 0-2.533-.249-4.857-.743-6.969-.497-2.113-1.416-4.119-2.759-6.022-1.346-1.899-3.183-3.767-5.518-5.597-2.334-1.83-5.342-3.694-9.019-5.598-3.681-1.9-8.064-3.906-13.157-6.018-8.349-3.236-15.173-6.758-20.479-10.562-5.306-3.8-9.162-7.919-11.566-12.354-2.407-4.438-3.607-9.119-3.607-14.05 0-6.476 1.519-12.143 4.562-17.003 3.041-4.858 7.427-8.661 13.157-11.407S34.518 0 42.443 0c4.808 0 9.371.637 13.688 1.91 4.314 1.273 8.24 3.114 11.778 5.518a38.199 38.199 0 019.125 8.701l-5.73 7.215-1.273 1.485-1.061-.849c0-.988-.212-1.979-.636-2.971-.425-.988-1.416-2.334-2.971-4.032-3.256-2.971-6.897-5.093-10.929-6.366-4.032-1.273-8.737-1.98-14.112-2.123-3.82 0-7.288.601-10.398 1.797-3.114 1.197-5.803 2.852-8.064 4.96-2.265 2.112-3.999 4.54-5.199 7.285-1.204 2.746-1.804 5.736-1.804 8.973 0 2.533.318 4.857.955 6.97s1.731 4.188 3.29 6.23c1.555 2.043 3.641 4.013 6.26 5.912 2.616 1.9 5.905 3.837 9.868 5.806 3.959 1.971 8.701 4.082 14.219 6.334 5.942 2.395 10.962 4.857 15.067 7.391 4.102 2.533 7.355 5.246 9.762 8.131 2.404 2.885 4.171 5.949 5.305 9.186 1.131 3.236 1.698 6.757 1.698 10.557 0 6.334-1.485 12.352-4.457 18.052-2.971 5.704-7.464 10.349-13.476 13.937-6.015 3.588-13.618 5.385-22.813 5.385-8.633-.001-16.236-1.417-22.815-4.246zm113.429 1.911L87.645.637h10.823l36.077 112.179L169.56.849h9.975l-42.656 132.21h-5.73zm50.506 1.697c-2.545 0-4.705-.885-6.473-2.652-1.77-1.768-2.652-3.854-2.652-6.26 0-2.547.883-4.702 2.652-6.473 1.768-1.768 3.928-2.652 6.473-2.652 2.404 0 4.527.885 6.367 2.652 1.838 1.771 2.76 3.926 2.76 6.473 0 2.406-.922 4.492-2.76 6.26-1.839 1.767-3.962 2.652-6.367 2.652z" fill="#FFF"/></svg>