<svg xmlns="http://www.w3.org/2000/svg" width="200" height="200"><path fill="#528BC9" d="M200 170c0 16.5-13.5 30-30 30H30c-16.5 0-30-13.5-30-30V30C0 13.5 13.5 0 30 0h140c16.5 0 30 13.5 30 30v140z"/><path d="M58.481 63.623c4.1 0 7.487.591 10.163 1.772 2.675 1.183 5.02 2.433 7.036 3.752v9.694c-1.946-1.459-4.31-2.83-7.088-4.117-2.78-1.285-5.803-1.929-9.068-1.929-2.085 0-4.257.365-6.515 1.095-2.259.729-4.153 1.894-5.681 3.492-1.529 1.599-2.293 3.648-2.293 6.15 0 2.78 1.006 4.898 3.022 6.357 2.015 1.459 4.446 2.851 7.297 4.17l9.589 4.378c4.794 2.155 8.407 4.552 10.84 7.192 2.431 2.642 3.648 6.149 3.648 10.527 0 3.822-1.112 7.176-3.335 10.059-2.225 2.884-5.144 5.159-8.756 6.827-3.614 1.667-7.575 2.501-11.882 2.501-4.031 0-7.75-.695-11.153-2.084-3.406-1.39-6.359-2.953-8.86-4.69v-9.694c2.71 1.876 5.819 3.562 9.329 5.055 3.508 1.495 7.487 2.242 11.935 2.242 3.474 0 6.531-.868 9.173-2.606 2.64-1.736 3.961-4.134 3.961-7.192 0-1.736-.54-3.231-1.616-4.482-1.079-1.251-2.381-2.328-3.909-3.231a39.507 39.507 0 00-4.482-2.292l-11.57-5.212c-5.003-2.223-8.409-4.829-10.215-7.818-1.808-2.987-2.71-6.426-2.71-10.318 0-3.683 1.059-7 3.179-9.955 2.119-2.953 4.952-5.299 8.495-7.036 3.545-1.738 7.366-2.607 11.466-2.607zm97.146 1.042l-32.625 69.836h-4.69L85.687 64.665h11.257l23.557 53.993 23.869-53.993h11.257zm1.735 57.12c2.015 0 3.735.713 5.16 2.136 1.424 1.425 2.137 3.146 2.137 5.16 0 1.946-.713 3.647-2.137 5.107-1.425 1.459-3.145 2.189-5.16 2.189-2.016 0-3.736-.729-5.159-2.189-1.425-1.459-2.137-3.161-2.137-5.107 0-2.015.712-3.735 2.137-5.16 1.423-1.423 3.143-2.136 5.159-2.136z" fill="#FFF"/></svg>