<svg xmlns="http://www.w3.org/2000/svg" width="2000" height="996.1" viewbox="0 0 2000 996.1"><g fill="#FFF"><path d="M1064.124 491.896h10.897v4.122h-10.897z"/><path d="M1069.276 481.554v8.44h13.393v4.359h-13.393v10.62h-5.152v-27.74h20.25v4.321zM1111.155 504.973l-5.666-8.124c-.238.028-.596.041-1.07.041h-6.262v8.083h-5.151v-27.74h11.413c2.404 0 4.498.397 6.281 1.189 1.782.793 3.151 1.93 4.101 3.408.952 1.48 1.428 3.237 1.428 5.271 0 2.087-.51 3.884-1.527 5.391-1.016 1.505-2.476 2.628-4.378 3.367l6.38 9.114h-5.549zm-1.863-21.955c-1.163-.951-2.866-1.425-5.112-1.425h-6.023v11.056h6.023c2.246 0 3.949-.482 5.112-1.446 1.163-.965 1.743-2.332 1.743-4.102.001-1.77-.579-3.131-1.743-4.083M1132.04 503.527c-2.271-1.228-4.056-2.933-5.35-5.111-1.296-2.18-1.942-4.618-1.942-7.312 0-2.695.646-5.131 1.942-7.312 1.294-2.18 3.078-3.884 5.35-5.111 2.271-1.229 4.82-1.843 7.648-1.843 2.826 0 5.375.614 7.648 1.843 2.271 1.228 4.056 2.926 5.35 5.093 1.294 2.166 1.941 4.61 1.941 7.331 0 2.722-.647 5.166-1.941 7.331-1.294 2.168-3.078 3.865-5.35 5.093-2.273 1.229-4.822 1.843-7.648 1.843-2.828-.002-5.377-.617-7.648-1.845m12.641-3.923c1.48-.833 2.641-1.995 3.486-3.488s1.269-3.164 1.269-5.013-.423-3.521-1.269-5.013-2.006-2.655-3.486-3.488c-1.481-.832-3.145-1.248-4.993-1.248-1.85 0-3.515.416-4.995 1.248-1.478.833-2.64 1.995-3.485 3.488s-1.27 3.164-1.27 5.013.424 3.521 1.27 5.013 2.008 2.655 3.485 3.488c1.48.831 3.146 1.249 4.995 1.249 1.849 0 3.512-.418 4.993-1.249M1189.5 477.233v27.741h-4.24l-15.298-18.785v18.785h-5.111v-27.741h4.24l15.297 18.785v-18.785zM1207.333 481.593h-9.194v-4.36h23.538v4.36h-9.192v23.381h-5.152zM1269.748 500.653v4.32h-20.806v-27.741h20.25v4.32h-15.098v7.213h13.394v4.24h-13.394v7.648zM1304.898 477.233v27.741h-4.241l-15.296-18.785v18.785h-5.111v-27.741h4.239l15.297 18.785v-18.785zM1317.104 477.233h12.126c2.959 0 5.588.576 7.886 1.724 2.3 1.149 4.082 2.775 5.351 4.875 1.268 2.099 1.901 4.523 1.901 7.271s-.634 5.171-1.901 7.272c-1.269 2.1-3.051 3.725-5.351 4.873-2.298 1.149-4.927 1.726-7.886 1.726h-12.126v-27.741zm11.889 23.381c2.033 0 3.824-.389 5.369-1.168 1.546-.78 2.733-1.89 3.567-3.329.831-1.44 1.248-3.11 1.248-5.013s-.417-3.572-1.248-5.013c-.834-1.44-2.021-2.549-3.567-3.329-1.545-.778-3.336-1.168-5.369-1.168h-6.738v19.021h6.738zM1391.088 505.408l-3.488-3.367c-2.588 2.219-5.692 3.329-9.312 3.329-1.928 0-3.659-.317-5.19-.952-1.532-.633-2.734-1.512-3.607-2.635a6.071 6.071 0 0 1-1.307-3.823c0-1.718.501-3.23 1.506-4.538 1.003-1.308 2.641-2.595 4.914-3.865-1.111-1.109-1.902-2.146-2.379-3.109a6.698 6.698 0 0 1-.712-2.993c0-1.955.732-3.532 2.199-4.735 1.466-1.201 3.414-1.803 5.845-1.803 2.245 0 4.042.549 5.39 1.645 1.347 1.096 2.021 2.583 2.021 4.458 0 1.427-.442 2.694-1.327 3.804s-2.332 2.232-4.339 3.369l5.982 5.706c.66-1.294 1.177-2.854 1.546-4.676l4.001 1.308c-.526 2.455-1.359 4.569-2.494 6.34l3.486 3.329-2.735 3.208zm-6.419-6.181l-7.331-7.014c-1.585.872-2.702 1.711-3.349 2.517-.648.806-.971 1.71-.971 2.713 0 1.164.515 2.101 1.545 2.814 1.03.714 2.391 1.07 4.082 1.07 2.299 0 4.307-.7 6.024-2.1m-7.688-17.97c-.634.54-.951 1.248-.951 2.119 0 .634.172 1.236.517 1.802.342.57 1.003 1.342 1.98 2.32 1.584-.873 2.688-1.632 3.31-2.279.619-.647.931-1.354.931-2.119 0-.82-.284-1.468-.853-1.942-.567-.477-1.354-.715-2.357-.715-1.085 0-1.943.272-2.577.814"/><g><path d="M1107.319 524.788l-9.194 27.739h-5.467L1085.801 532l-6.975 20.527h-5.507l-9.195-27.739h5.35l6.896 21.082 7.172-21.082h4.756l7.013 21.201 7.095-21.201zM1121.309 551.081c-2.273-1.229-4.057-2.933-5.352-5.112-1.294-2.18-1.941-4.616-1.941-7.312 0-2.695.647-5.13 1.941-7.311 1.295-2.18 3.078-3.884 5.352-5.113 2.271-1.229 4.82-1.843 7.646-1.843 2.828 0 5.377.615 7.649 1.843 2.272 1.229 4.055 2.927 5.349 5.093 1.294 2.167 1.942 4.611 1.942 7.331 0 2.722-.648 5.167-1.942 7.332-1.294 2.167-3.076 3.864-5.349 5.092-2.272 1.228-4.821 1.843-7.649 1.843-2.826 0-5.374-.615-7.646-1.843m12.642-3.923a9.021 9.021 0 0 0 3.485-3.488c.846-1.491 1.27-3.163 1.27-5.013 0-1.849-.424-3.519-1.27-5.012a9.042 9.042 0 0 0-3.485-3.488c-1.48-.833-3.145-1.247-4.995-1.247-1.849 0-3.514.415-4.993 1.247a9.037 9.037 0 0 0-3.486 3.488c-.846 1.493-1.269 3.163-1.269 5.012 0 1.85.423 3.522 1.269 5.013a9.044 9.044 0 0 0 3.486 3.488c1.479.832 3.145 1.249 4.993 1.249 1.85-.001 3.514-.418 4.995-1.249M1172.27 552.527l-5.667-8.123c-.237.026-.594.039-1.07.039h-6.262v8.084h-5.15v-27.74h11.412c2.404 0 4.5.397 6.281 1.189 1.783.793 3.152 1.93 4.101 3.407.953 1.481 1.428 3.236 1.428 5.271 0 2.087-.509 3.884-1.525 5.389-1.018 1.505-2.477 2.629-4.378 3.369l6.38 9.114h-5.55zm-1.862-21.954c-1.162-.95-2.865-1.426-5.113-1.426h-6.023v11.056h6.023c2.248 0 3.951-.481 5.113-1.446 1.162-.963 1.743-2.331 1.743-4.101 0-1.772-.581-3.133-1.743-4.083M1187.843 524.788h12.127c2.958 0 5.587.575 7.886 1.724 2.299 1.148 4.082 2.774 5.35 4.874 1.269 2.1 1.901 4.524 1.901 7.271 0 2.749-.633 5.172-1.901 7.272-1.268 2.1-3.051 3.726-5.35 4.874-2.299 1.149-4.928 1.724-7.886 1.724h-12.127v-27.739zm11.889 23.38c2.034 0 3.824-.39 5.37-1.169 1.545-.778 2.734-1.888 3.565-3.328.833-1.44 1.249-3.112 1.249-5.015 0-1.901-.416-3.572-1.249-5.012-.831-1.44-2.021-2.55-3.565-3.329-1.546-.779-3.336-1.169-5.37-1.169h-6.737v19.021h6.737zM1243.026 525.977c1.783.792 3.151 1.928 4.101 3.408.952 1.48 1.428 3.237 1.428 5.271 0 2.009-.476 3.759-1.428 5.25-.949 1.494-2.317 2.635-4.101 3.428-1.782.793-3.877 1.189-6.28 1.189h-6.262v8.004h-5.151v-27.74h11.413c2.403.001 4.498.398 6.28 1.19m-1.407 12.759c1.163-.951 1.743-2.312 1.743-4.081 0-1.771-.58-3.13-1.743-4.083-1.162-.95-2.865-1.426-5.111-1.426h-6.023v11.017h6.023c2.245.001 3.949-.475 5.111-1.427M1276.611 552.527l-5.665-8.123c-.238.026-.595.039-1.071.039h-6.262v8.084h-5.151v-27.74h11.413c2.404 0 4.498.397 6.28 1.189 1.784.793 3.151 1.93 4.103 3.407.951 1.481 1.426 3.236 1.426 5.271 0 2.087-.508 3.884-1.524 5.389-1.019 1.505-2.477 2.629-4.379 3.369l6.38 9.114h-5.55zm-1.862-21.954c-1.162-.95-2.866-1.426-5.112-1.426h-6.023v11.056h6.023c2.246 0 3.95-.481 5.112-1.446 1.162-.963 1.744-2.331 1.744-4.101 0-1.772-.582-3.133-1.744-4.083M1312.991 548.208v4.319h-20.807v-27.739h20.25v4.319h-15.098v7.211h13.394v4.241h-13.394v7.649zM1325.888 552.012c-1.995-.607-3.572-1.413-4.735-2.417l1.783-4.003c1.136.898 2.529 1.632 4.181 2.199 1.65.568 3.308.852 4.974.852 2.061 0 3.6-.329 4.616-.99 1.018-.66 1.526-1.533 1.526-2.615 0-.793-.285-1.446-.853-1.962-.567-.514-1.287-.917-2.158-1.208-.873-.291-2.062-.62-3.567-.992-2.114-.501-3.824-1.003-5.133-1.504a8.433 8.433 0 0 1-3.367-2.358c-.938-1.071-1.407-2.517-1.407-4.339 0-1.532.417-2.926 1.248-4.181.832-1.256 2.087-2.253 3.765-2.993 1.679-.739 3.732-1.111 6.163-1.111 1.69 0 3.354.214 4.993.636 1.638.423 3.05 1.03 4.24 1.822l-1.626 4.003a16.064 16.064 0 0 0-3.804-1.625c-1.321-.369-2.602-.555-3.844-.555-2.034 0-3.547.343-4.536 1.03-.992.688-1.487 1.599-1.487 2.735 0 .793.284 1.44.852 1.942.567.502 1.288.898 2.159 1.188.873.291 2.062.621 3.567.99 2.06.477 3.751.972 5.073 1.486a8.706 8.706 0 0 1 3.387 2.359c.938 1.057 1.408 2.483 1.408 4.279 0 1.532-.416 2.92-1.249 4.162-.833 1.243-2.094 2.233-3.784 2.973-1.691.738-3.752 1.109-6.183 1.109-2.139 0-4.207-.304-6.202-.912M1355.571 552.012c-1.994-.607-3.573-1.413-4.735-2.417l1.783-4.003c1.134.898 2.529 1.632 4.181 2.199 1.65.568 3.308.852 4.974.852 2.061 0 3.6-.329 4.616-.99 1.019-.66 1.526-1.533 1.526-2.615 0-.793-.285-1.446-.852-1.962-.57-.514-1.288-.917-2.161-1.208-.871-.291-2.061-.62-3.565-.992-2.115-.501-3.824-1.003-5.133-1.504a8.43 8.43 0 0 1-3.368-2.358c-.938-1.071-1.407-2.517-1.407-4.339 0-1.532.416-2.926 1.249-4.181.832-1.256 2.086-2.253 3.764-2.993 1.679-.739 3.731-1.111 6.162-1.111 1.69 0 3.354.214 4.994.636 1.637.423 3.05 1.03 4.239 1.822l-1.624 4.003a16.07 16.07 0 0 0-3.805-1.625c-1.32-.369-2.603-.555-3.844-.555-2.035 0-3.548.343-4.537 1.03-.991.688-1.487 1.599-1.487 2.735 0 .793.284 1.44.852 1.942.569.502 1.289.898 2.161 1.188.871.291 2.061.621 3.566.99 2.062.477 3.752.972 5.072 1.486 1.321.516 2.45 1.302 3.388 2.359s1.407 2.483 1.407 4.279c0 1.532-.416 2.92-1.248 4.162-.832 1.243-2.095 2.233-3.785 2.973-1.691.738-3.751 1.109-6.181 1.109a21.14 21.14 0 0 1-6.202-.912M1398.547 524.788h12.126c2.958 0 5.588.575 7.885 1.724 2.3 1.148 4.082 2.774 5.351 4.874s1.902 4.524 1.902 7.271c0 2.749-.634 5.172-1.902 7.272s-3.051 3.726-5.351 4.874c-2.297 1.149-4.927 1.724-7.885 1.724h-12.126v-27.739zm11.889 23.38c2.033 0 3.824-.39 5.369-1.169 1.545-.778 2.733-1.888 3.567-3.328.83-1.44 1.247-3.112 1.247-5.015 0-1.901-.417-3.572-1.247-5.012-.834-1.44-2.022-2.55-3.567-3.329-1.545-.779-3.336-1.169-5.369-1.169h-6.737v19.021h6.737zM1456.839 548.208v4.319h-20.804v-27.739h20.25v4.319h-15.098v7.211h13.394v4.241h-13.394v7.649zM1492.307 524.788l-12.087 27.739h-5.071l-12.128-27.739h5.588l9.234 21.399 9.314-21.399zM1520.8 548.208v4.319h-20.805v-27.739h20.251v4.319h-15.099v7.211h13.395v4.241h-13.395v7.649zM1531.301 524.788h5.152v23.38h14.505v4.359h-19.657zM1564.59 551.081c-2.272-1.229-4.057-2.933-5.351-5.112s-1.941-4.616-1.941-7.312c0-2.695.647-5.13 1.941-7.311 1.294-2.18 3.078-3.884 5.351-5.113 2.271-1.229 4.821-1.843 7.647-1.843 2.827 0 5.377.615 7.649 1.843 2.271 1.229 4.055 2.927 5.349 5.093 1.294 2.167 1.942 4.611 1.942 7.331 0 2.722-.648 5.167-1.942 7.332-1.294 2.167-3.078 3.864-5.349 5.092-2.272 1.228-4.822 1.843-7.649 1.843-2.825 0-5.376-.615-7.647-1.843m12.642-3.923a9.024 9.024 0 0 0 3.486-3.488c.846-1.491 1.27-3.163 1.27-5.013 0-1.849-.424-3.519-1.27-5.012a9.037 9.037 0 0 0-3.486-3.488c-1.479-.833-3.146-1.247-4.994-1.247s-3.514.415-4.993 1.247a9.033 9.033 0 0 0-3.487 3.488c-.845 1.493-1.267 3.163-1.267 5.012 0 1.85.422 3.522 1.267 5.013a9.04 9.04 0 0 0 3.487 3.488c1.479.832 3.145 1.249 4.993 1.249s3.514-.418 4.994-1.249M1615.095 525.977c1.784.792 3.152 1.928 4.103 3.408.951 1.48 1.427 3.237 1.427 5.271 0 2.009-.476 3.759-1.427 5.25-.95 1.494-2.318 2.635-4.103 3.428-1.782.793-3.876 1.189-6.28 1.189h-6.262v8.004h-5.151v-27.74h11.413c2.404.001 4.498.398 6.28 1.19m-1.406 12.759c1.162-.951 1.744-2.312 1.744-4.081 0-1.771-.582-3.13-1.744-4.083-1.162-.95-2.866-1.426-5.112-1.426h-6.023v11.017h6.023c2.246.001 3.95-.475 5.112-1.427M1651.337 548.208v4.319h-20.805v-27.739h20.25v4.319h-15.098v7.211h13.394v4.241h-13.394v7.649zM1679.988 552.527l-5.666-8.123c-.237.026-.595.039-1.07.039h-6.262v8.084h-5.151v-27.74h11.413c2.404 0 4.497.397 6.28 1.189 1.784.793 3.151 1.93 4.103 3.407.951 1.481 1.426 3.236 1.426 5.271 0 2.087-.508 3.884-1.526 5.389-1.017 1.505-2.475 2.629-4.378 3.369l6.381 9.114h-5.55zm-1.863-21.954c-1.162-.95-2.866-1.426-5.112-1.426h-6.023v11.056h6.023c2.246 0 3.95-.481 5.112-1.446 1.162-.963 1.744-2.331 1.744-4.101.001-1.772-.581-3.133-1.744-4.083M1694.374 551.873c-.635-.62-.952-1.406-.952-2.357 0-.978.311-1.771.931-2.378.621-.607 1.394-.911 2.32-.911.924 0 1.696.304 2.317.911.621.607.932 1.4.932 2.378 0 .951-.317 1.737-.951 2.357-.635.623-1.401.932-2.298.932-.9 0-1.667-.309-2.299-.932"/></g></g><g fill="#FFF"><path d="M428.7 550.645c-7.019-7.577-21.241 6.562-21.241 6.562-13.819 12.077-33.419 30.243-46.658 43.458a194.505 194.505 0 0 0-28.474 36.232c-9.198 16.119-13.797 29.055-13.797 38.834 0 7.479 2.301 13.238 6.898 17.256 6.341 6.34 15.817 9.477 28.475 9.477 8.617 0 18.395-1.418 29.334-4.297 21.855-5.76 44.849-15.398 69.003-28.916 24.154-13.494 44.291-28.312 60.387-44.432 14.957-14.934 24.293-28.033 28.033-39.25 3.74-11.219 5.62-19.695 5.62-25.432 0-12.658-4.32-25.595-12.936-38.834-3.461-5.179-7.364-9.918-11.218-14.654-6.285-7.723-35.373-36.233-35.373-36.233a327.322 327.322 0 0 1-33.654-35.372c-8.617-10.359-15.097-19.974-19.417-28.916-4.297-8.896-6.458-16.515-6.458-22.855 0-6.316 1.138-12.635 3.438-18.975 8.641-21.274 26.454-46.289 53.489-75.064 27.034-28.754 50.909-48.31 71.606-58.646 4.017-1.741 6.918-2.601 8.638-2.601 1.139 0 1.998.301 2.579.859 1.16.58 1.74 1.439 1.74 2.602 0 1.16-.301 2.298-.883 3.437-1.159 3.461-2.878 6.898-5.156 10.359v.859c-.578 1.162-1.462 2.741-2.601 4.738-1.16 2.02-1.881 3.763-2.16 5.18a18.968 18.968 0 0 0-.417 3.879v1.742c0 .58.279.859.86.859.557 0 1.416-.279 2.576-.859 4.6-2.3 9.5-6.897 14.68-13.82 5.18-6.897 8.315-12.634 9.476-17.233 1.161-4.599 1.741-7.781 1.741-9.499 0-5.179-2.321-9.198-6.921-12.077-3.437-1.138-6.896-1.719-10.335-1.719-4.621 0-9.5.86-14.68 2.578-9.777 4.041-17.536 8.339-23.295 12.937-20.135 14.377-43.268 35.535-69.443 63.406-26.176 27.917-43.573 53.07-52.188 75.482-1.719 6.923-2.579 13.821-2.579 20.719 0 9.197 1.718 17.837 5.156 25.873 6.34 14.377 14.957 27.917 25.897 40.552 9.778 11.52 20.392 23.017 31.912 34.514 0 0 16.601 16.571 33.653 33.63 4.897 4.899 8.896 10.359 12.937 15.539 6.898 9.777 10.359 19.278 10.359 28.474 0 4.599-.883 8.919-2.602 12.937-4.599 13.238-12.379 25.316-23.295 36.232-14.377 14.957-33.515 29.055-57.367 42.271-23.877 13.236-45.849 22.156-65.984 26.732-6.34 1.74-12.078 2.6-17.257 2.6-5.737 0-10.637-1.137-14.679-3.461-4.018-2.275-6.038-6.037-6.038-11.217 0-5.156 1.741-11.195 5.179-18.117 8.06-13.795 17.838-26.43 29.335-37.95 14.375-14.376 29.412-27.798 44.872-40.551 5.568-4.592 15.312-13.267 9.233-19.829zM961.379 446.789c-2.86 0-8.002 1.43-15.404 4.289-13.721 6.295-29.424 10.561-47.111 12.844-6.848.577-13.421.853-19.716.853-10.838 0-22.99-1.705-36.388-5.142-13.421-3.413-23.845-11.69-31.27-24.835-1.152-2.284-1.706-4.289-1.706-5.996 0-.553.139-1.568.415-2.998.3-1.406 1.291-3.551 2.998-6.41h.876c15.404-26.265 26.818-46.534 34.243-60.831 9.132-18.84 13.722-33.391 13.722-43.676 0-6.272-1.73-11.137-5.144-14.573-1.729-2.26-4.012-3.413-6.848-3.413-8.025 0-19.439 9.985-34.268 29.978-8.578 11.991-15.427 25.688-20.568 41.115-3.989 13.144-5.995 25.688-5.995 37.68v12.843c.576 2.883.876 5.143.876 6.872a9.018 9.018 0 0 1-1.291 4.704c-.854 1.43-2.146 3.575-3.852 6.411-24.559 37.126-50.409 72.821-77.526 107.065-27.118 34.266-49.256 55.69-66.389 64.245-2.283.576-4.267.854-5.996.854-8.555 0-14.551-8.832-17.985-26.541-1.707-10.84-2.56-22.553-2.56-35.121 0-14.851 1.405-34.267 4.289-58.249 2.629-22.16 5.995-40.17 10.1-54.029.346-1.153.691-2.26 1.037-3.343 1.131-3.436 2.121-6.134 2.998-8.14.139-.346.276-.669.438-.969.761-1.591 1.591-2.974 2.56-4.174a77.794 77.794 0 0 0 3.412-4.704c1.131-1.153 2.859-3.136 5.144-5.995 2.858-3.436 4.289-7.425 4.289-12.014 0-5.12-1.431-9.409-4.289-12.844-2.284-2.26-4.289-3.413-5.996-3.413s-3.712.853-5.996 2.559c-2.282 1.707-4.864 5.281-7.701 10.723-2.883 5.419-5.442 11-7.725 16.695-2.606 6.941-5.004 15.058-7.195 24.351-1.614 6.779-3.112 14.182-4.473 22.207-1.685 9.8-3.229 20.568-4.591 32.236-2.858 21.699-4.287 42.545-4.287 62.539 0 12.566.576 24.834 1.705 36.825 2.283 22.275 8.279 36.549 17.988 42.822 3.988 2.859 8.577 4.289 13.719 4.289 6.272 0 12.845-2.006 19.693-5.996 18.263-11.414 40.538-34.127 66.803-68.094 26.266-33.967 51.401-69.525 75.383-106.651 1.707-3.989 3.713-5.995 5.996-5.995 1.705 0 3.412 1.153 5.142 3.437 15.979 18.286 38.533 27.394 67.657 27.394h4.289c27.395 0 52.253-5.419 74.506-16.256 10.838-5.719 16.28-9.984 16.28-12.845v-.876c-.576-1.132-2.007-1.707-4.288-1.707m-155.03-46.259c-.577 0-.854-.854-.854-2.56 0-1.129.276-2.859.854-5.142 1.707-10.284 4.727-20.685 8.993-31.27 4.289-10.561 9.27-19.554 14.989-26.979 4.564-5.695 8-8.554 10.283-8.554.555 0 1.131.576 1.707 1.706.576.576.854 1.429.854 2.583 0 4.566-2.859 12.267-8.555 23.105-4.59 9.732-12.291 23.429-23.13 41.115-2.282 4.013-3.988 5.996-5.141 5.996M783.49 579.669a15.892 15.892 0 0 0-5.144-.854c-3.411 0-6.848 1.152-10.261 3.412-4.012 2.283-5.995 6.295-5.995 11.992v1.729c2.26 8.555 5.695 13.697 10.262 15.404 1.729.576 3.436.854 5.142.854 2.86 0 6.134-1.408 9.847-4.268 3.713-2.857 5.581-7.725 5.581-14.572-1.153-7.402-4.29-11.99-9.432-13.697M922.11 712.01c-.976 4.689-12.194 1.962-12.194 1.962-77.074-16.577-160.206-19.719-239.04-13.615-66.16 5.123-131.49 20.301-196.243 41.214-79.559 25.697-137.518 59.278-162.617 76.284-15.927 10.791-22.449-.728-22.449-.728-7.59-10.824 9.642-19.818 9.642-19.818 26.269-15.83 85.664-48.392 169.833-75.575 66.616-21.518 133.001-32.055 201.113-37.329 81.422-6.309 162.87 2.725 242.073 20.408.001-.001 10.85 2.337 9.882 7.197z"/></g></svg>
