<svg xmlns="http://www.w3.org/2000/svg" width="2320.698" height="615.176"><g fill="#FFF"><path d="M886.487 245.74h24.583v9.298h-24.583z"/><path d="M898.109 222.41v19.04h30.213v9.833h-30.213v23.955h-11.622v-62.574h45.679v9.746zm94.47 52.828l-12.78-18.325c-.538.062-1.345.091-2.416.091h-14.125v18.233h-11.62v-62.574h25.745c5.424 0 10.146.896 14.168 2.682 4.021 1.789 7.11 4.353 9.251 7.688 2.148 3.338 3.222 7.301 3.222 11.889 0 4.708-1.15 8.761-3.446 12.16-2.291 3.396-5.585 5.927-9.875 7.596l14.391 20.56h-12.515zm-4.2-49.524c-2.626-2.145-6.467-3.214-11.533-3.214h-13.588v24.939h13.588c5.066 0 8.907-1.088 11.533-3.263 2.622-2.176 3.932-5.259 3.932-9.253 0-3.992-1.31-7.061-3.932-9.209m51.31 46.263c-5.124-2.769-9.148-6.616-12.065-11.53-2.924-4.917-4.383-10.416-4.383-16.495s1.459-11.574 4.383-16.494c2.917-4.917 6.941-8.761 12.065-11.53 5.125-2.772 10.874-4.158 17.254-4.158 6.374 0 12.125 1.386 17.252 4.158 5.125 2.769 9.149 6.6 12.068 11.488 2.919 4.885 4.379 10.399 4.379 16.536 0 6.14-1.46 11.654-4.379 16.537-2.919 4.891-6.943 8.719-12.068 11.488-5.127 2.771-10.878 4.159-17.252 4.159-6.38-.001-12.129-1.388-17.254-4.159m28.518-8.848c3.339-1.879 5.956-4.501 7.864-7.868 1.908-3.367 2.861-7.138 2.861-11.309 0-4.171-.953-7.941-2.861-11.309-1.908-3.367-4.525-5.989-7.864-7.867-3.343-1.877-7.094-2.814-11.264-2.814-4.173 0-7.929.937-11.269 2.814-3.333 1.877-5.954 4.5-7.861 7.867-1.908 3.367-2.864 7.138-2.864 11.309 0 4.171.956 7.942 2.864 11.309 1.907 3.367 4.528 5.988 7.861 7.868 3.34 1.874 7.096 2.816 11.269 2.816 4.17 0 7.921-.943 11.264-2.816m101.102-50.465v62.578h-9.566l-34.508-42.374v42.374h-11.53v-62.578h9.565l34.506 42.374v-42.374zm40.227 9.836h-20.741v-9.836h53.096v9.836h-20.736v52.742h-11.619zm140.79 42.995v9.743h-46.931v-62.576h45.679v9.745h-34.057v16.27h30.213v9.565h-30.213v17.253zm79.291-52.831v62.578h-9.566l-34.504-42.374v42.374h-11.529v-62.578h9.561l34.506 42.374v-42.374zm27.535 0h27.354c6.675 0 12.604 1.298 17.788 3.889 5.188 2.593 9.208 6.26 12.07 10.998 2.858 4.733 4.288 10.203 4.288 16.401 0 6.199-1.43 11.665-4.288 16.405-2.862 4.737-6.882 8.402-12.07 10.992-5.185 2.593-11.113 3.893-17.788 3.893h-27.354v-62.578zm26.819 52.741c4.586 0 8.627-.877 12.11-2.635 3.487-1.76 6.167-4.264 8.048-7.509 1.875-3.249 2.815-7.016 2.815-11.309 0-4.292-.94-8.057-2.815-11.309-1.881-3.249-4.561-5.749-8.048-7.509-3.483-1.754-7.524-2.634-12.11-2.634h-15.2v42.905h15.2zm140.073 10.816l-7.869-7.596c-5.838 5.006-12.841 7.51-21.005 7.51-4.348 0-8.254-.715-11.709-2.148-3.455-1.429-6.168-3.41-8.138-5.945-1.964-2.532-2.947-5.406-2.947-8.623 0-3.876 1.132-7.285 3.396-10.237 2.264-2.951 5.958-5.854 11.087-8.717-2.508-2.502-4.291-4.841-5.366-7.015-1.071-2.176-1.607-4.426-1.607-6.75 0-4.41 1.653-7.968 4.961-10.682 3.308-2.709 7.702-4.068 13.185-4.068 5.064 0 9.118 1.238 12.158 3.709 3.038 2.472 4.558 5.826 4.558 10.058 0 3.22-.998 6.077-2.994 8.581-1.995 2.504-5.26 5.035-9.786 7.599l13.493 12.872c1.491-2.92 2.655-6.437 3.487-10.548l9.026 2.951c-1.188 5.539-3.066 10.307-5.626 14.302l7.863 7.509-6.167 7.238zm-14.481-13.944l-16.536-15.822c-3.576 1.965-6.096 3.86-7.555 5.678-1.462 1.818-2.189 3.857-2.189 6.12 0 2.625 1.161 4.739 3.484 6.348 2.324 1.61 5.393 2.412 9.209 2.412 5.184.001 9.713-1.576 13.587-4.736m-17.342-40.536c-1.43 1.216-2.146 2.814-2.146 4.779 0 1.431.388 2.787 1.166 4.066.771 1.286 2.262 3.028 4.468 5.233 3.572-1.969 6.062-3.682 7.466-5.141 1.396-1.459 2.098-3.053 2.098-4.779 0-1.851-.641-3.312-1.922-4.381-1.28-1.075-3.054-1.613-5.318-1.613-2.446 0-4.384.613-5.812 1.836M983.925 339.936l-20.739 62.574h-12.332l-15.466-46.304-15.736 46.304H907.23l-20.743-62.574h12.07l15.555 47.556 16.18-47.556h10.729l15.818 47.824 16.005-47.824zm31.559 59.312c-5.128-2.771-9.149-6.615-12.072-11.532-2.918-4.916-4.379-10.412-4.379-16.493 0-6.08 1.461-11.572 4.379-16.491 2.923-4.917 6.944-8.762 12.072-11.534 5.123-2.771 10.874-4.157 17.248-4.157 6.381 0 12.13 1.387 17.256 4.157 5.127 2.772 9.147 6.604 12.066 11.489 2.918 4.886 4.38 10.4 4.38 16.536 0 6.139-1.462 11.653-4.38 16.538-2.919 4.888-6.939 8.716-12.066 11.487-5.126 2.771-10.875 4.158-17.256 4.158-6.374 0-12.125-1.387-17.248-4.158m28.517-8.85c3.336-1.878 5.954-4.497 7.862-7.868 1.907-3.363 2.863-7.134 2.863-11.308 0-4.173-.956-7.938-2.863-11.307-1.908-3.367-4.526-5.988-7.862-7.868-3.34-1.878-7.094-2.813-11.269-2.813-4.169 0-7.926.936-11.263 2.813-3.333 1.88-5.956 4.501-7.864 7.868-1.908 3.368-2.862 7.134-2.862 11.307 0 4.174.954 7.944 2.862 11.308 1.908 3.371 4.531 5.99 7.864 7.868 3.337 1.876 7.094 2.817 11.263 2.817 4.175 0 7.929-.941 11.269-2.817m86.438 12.112l-12.782-18.322c-.536.058-1.34.086-2.414.086h-14.125v18.236H1089.5v-62.574h25.743c5.423 0 10.149.896 14.168 2.683 4.022 1.788 7.111 4.353 9.251 7.686 2.15 3.341 3.221 7.3 3.221 11.891 0 4.707-1.148 8.761-3.441 12.157-2.296 3.396-5.587 5.932-9.876 7.599l14.393 20.56h-12.52zm-4.199-49.524c-2.621-2.143-6.465-3.218-11.535-3.218h-13.587v24.94h13.587c5.07 0 8.914-1.088 11.535-3.264 2.62-2.172 3.932-5.258 3.932-9.25 0-3.994-1.312-7.064-3.932-9.208m39.329-13.05h27.356c6.673 0 12.603 1.296 17.788 3.89 5.185 2.589 9.209 6.257 12.067 10.994 2.861 4.737 4.289 10.206 4.289 16.402 0 6.2-1.428 11.666-4.289 16.404-2.858 4.737-6.883 8.405-12.067 10.995-5.186 2.592-11.115 3.889-17.788 3.889h-27.356v-62.574zm26.819 52.741c4.589 0 8.627-.879 12.114-2.637 3.485-1.755 6.168-4.259 8.044-7.507 1.877-3.249 2.816-7.02 2.816-11.312 0-4.289-.939-8.058-2.816-11.307-1.876-3.248-4.559-5.752-8.044-7.509-3.487-1.758-7.525-2.639-12.114-2.639h-15.197v42.909h15.197zm97.662-50.058c4.021 1.786 7.109 4.35 9.25 7.688 2.146 3.339 3.221 7.303 3.221 11.889 0 4.532-1.074 8.479-3.221 11.843-2.141 3.371-5.229 5.945-9.25 7.734-4.021 1.789-8.746 2.682-14.167 2.682h-14.125v18.057h-11.621v-62.574h25.746c5.421-.002 10.146.894 14.167 2.681m-3.175 28.782c2.624-2.145 3.932-5.214 3.932-9.206 0-3.995-1.308-7.061-3.932-9.209-2.622-2.143-6.463-3.218-11.53-3.218h-13.587v24.853h13.587c5.067 0 8.908-1.074 11.53-3.22m78.934 31.109l-12.779-18.322c-.536.058-1.341.086-2.416.086h-14.124v18.236h-11.621v-62.574h25.745c5.423 0 10.147.896 14.167 2.683 4.024 1.788 7.108 4.353 9.254 7.686 2.146 3.341 3.216 7.3 3.216 11.891 0 4.707-1.145 8.761-3.438 12.157-2.298 3.396-5.586 5.932-9.877 7.599l14.391 20.56h-12.518zm-4.202-49.524c-2.622-2.143-6.466-3.218-11.532-3.218h-13.586v24.94h13.586c5.066 0 8.91-1.088 11.532-3.264 2.621-2.172 3.936-5.258 3.936-9.25 0-3.994-1.314-7.064-3.936-9.208m86.266 39.781v9.743h-46.935v-62.574h45.679v9.743h-34.055v16.268h30.211v9.564h-30.211v17.256zm29.094 8.581c-4.5-1.37-8.059-3.187-10.683-5.451l4.024-9.029c2.561 2.026 5.705 3.681 9.429 4.961s7.462 1.921 11.221 1.921c4.647 0 8.119-.742 10.413-2.232 2.296-1.491 3.443-3.458 3.443-5.9 0-1.789-.644-3.263-1.924-4.428-1.28-1.159-2.903-2.067-4.869-2.725-1.969-.655-4.65-1.398-8.046-2.236-4.77-1.131-8.626-2.264-11.579-3.394-2.947-1.133-5.483-2.906-7.596-5.32-2.114-2.415-3.174-5.679-3.174-9.788 0-3.455.94-6.601 2.815-9.43 1.876-2.833 4.707-5.083 8.492-6.751s8.419-2.506 13.902-2.506c3.813 0 7.566.481 11.263 1.434 3.695.954 6.881 2.324 9.564 4.11l-3.667 9.029a36.13 36.13 0 0 0-8.58-3.665c-2.98-.832-5.868-1.251-8.671-1.251-4.589 0-8.001.774-10.232 2.323-2.238 1.553-3.354 3.606-3.354 6.17 0 1.788.641 3.247 1.922 4.381 1.278 1.132 2.904 2.025 4.869 2.68 1.97.654 4.654 1.401 8.047 2.234 4.646 1.075 8.462 2.19 11.444 3.352a19.64 19.64 0 0 1 7.64 5.322c2.117 2.384 3.177 5.601 3.177 9.651 0 3.456-.938 6.587-2.817 9.388-1.88 2.803-4.724 5.038-8.536 6.705-3.815 1.666-8.464 2.503-13.946 2.503-4.827 0-9.49-.688-13.991-2.058m66.957 0c-4.498-1.37-8.06-3.187-10.682-5.451l4.021-9.029c2.559 2.026 5.706 3.681 9.432 4.961 3.724 1.28 7.462 1.921 11.22 1.921 4.646 0 8.12-.742 10.413-2.232 2.298-1.491 3.442-3.458 3.442-5.9 0-1.789-.644-3.263-1.92-4.428-1.286-1.159-2.906-2.067-4.875-2.725-1.966-.655-4.648-1.398-8.044-2.236-4.77-1.131-8.626-2.264-11.577-3.394-2.952-1.133-5.483-2.906-7.599-5.32-2.117-2.415-3.174-5.679-3.174-9.788 0-3.455.938-6.601 2.816-9.43 1.878-2.833 4.706-5.083 8.49-6.751 3.787-1.668 8.417-2.506 13.9-2.506 3.814 0 7.566.481 11.267 1.434 3.691.954 6.879 2.324 9.562 4.11l-3.663 9.029a36.192 36.192 0 0 0-8.584-3.665c-2.978-.832-5.869-1.251-8.671-1.251-4.589 0-8.003.774-10.233 2.323-2.236 1.553-3.355 3.606-3.355 6.17 0 1.788.641 3.247 1.921 4.381 1.285 1.132 2.908 2.025 4.875 2.68 1.965.654 4.648 1.401 8.045 2.234 4.651 1.075 8.464 2.19 11.441 3.352a19.596 19.596 0 0 1 7.642 5.322c2.117 2.384 3.176 5.601 3.176 9.651 0 3.456-.939 6.587-2.814 9.388-1.878 2.803-4.727 5.038-8.54 6.705-3.815 1.666-8.46 2.503-13.941 2.503-4.829 0-9.495-.688-13.991-2.058m96.945-61.412h27.353c6.673 0 12.606 1.296 17.788 3.89 5.188 2.589 9.207 6.257 12.068 10.994 2.862 4.737 4.292 10.206 4.292 16.402 0 6.2-1.43 11.666-4.292 16.404-2.861 4.737-6.881 8.405-12.068 10.995-5.182 2.592-11.115 3.889-17.788 3.889h-27.353v-62.574zm26.818 52.741c4.588 0 8.626-.879 12.112-2.637 3.485-1.755 6.166-4.259 8.047-7.507 1.873-3.249 2.814-7.02 2.814-11.312 0-4.289-.941-8.058-2.814-11.307-1.881-3.248-4.562-5.752-8.047-7.509-3.486-1.758-7.524-2.639-12.112-2.639h-15.197v42.909h15.197zm104.674.09v9.743h-46.928v-62.574h45.678v9.743h-34.057v16.268h30.214v9.564h-30.214v17.256zm80.008-52.831l-27.265 62.574h-11.44l-27.357-62.574h12.605l20.831 48.272 21.008-48.272zm64.275 52.831v9.743h-46.934v-62.574h45.682v9.743h-34.059v16.268h30.215v9.564h-30.215v17.256zm23.687-52.831h11.62v52.741h32.72v9.833h-44.34zm75.093 59.312c-5.126-2.771-9.151-6.615-12.07-11.532-2.919-4.916-4.381-10.412-4.381-16.493 0-6.08 1.462-11.572 4.381-16.491 2.919-4.917 6.944-8.762 12.07-11.534 5.12-2.771 10.875-4.157 17.25-4.157 6.377 0 12.129 1.387 17.254 4.157 5.122 2.772 9.147 6.604 12.066 11.489 2.92 4.886 4.383 10.4 4.383 16.536 0 6.139-1.463 11.653-4.383 16.538-2.919 4.888-6.944 8.716-12.066 11.487-5.125 2.771-10.877 4.158-17.254 4.158-6.375 0-12.13-1.387-17.25-4.158m28.515-8.85c3.337-1.878 5.957-4.497 7.864-7.868 1.907-3.363 2.863-7.134 2.863-11.308 0-4.173-.956-7.938-2.863-11.307-1.907-3.367-4.527-5.988-7.864-7.868-3.337-1.878-7.096-2.813-11.266-2.813s-7.926.936-11.263 2.813c-3.336 1.88-5.96 4.501-7.868 7.868-1.904 3.368-2.856 7.134-2.856 11.307 0 4.174.952 7.944 2.856 11.308 1.908 3.371 4.532 5.99 7.868 7.868 3.337 1.876 7.093 2.817 11.263 2.817s7.93-.941 11.266-2.817m85.411-47.779c4.025 1.786 7.112 4.35 9.255 7.688 2.146 3.339 3.219 7.303 3.219 11.889 0 4.532-1.072 8.479-3.219 11.843-2.143 3.371-5.229 5.945-9.255 7.734-4.021 1.789-8.742 2.682-14.167 2.682h-14.125v18.057h-11.619v-62.574h25.744c5.424-.002 10.146.894 14.167 2.681m-3.172 28.782c2.621-2.145 3.936-5.214 3.936-9.206 0-3.995-1.314-7.061-3.936-9.209-2.621-2.143-6.466-3.218-11.532-3.218h-13.588v24.853h13.588c5.066 0 8.911-1.074 11.532-3.22m84.926 21.366v9.743h-46.933v-62.574h45.68v9.743h-34.057v16.268h30.212v9.564h-30.212v17.256zm64.629 9.743l-12.781-18.322c-.535.058-1.341.086-2.415.086h-14.126v18.236h-11.62v-62.574h25.746c5.424 0 10.144.896 14.168 2.683 4.023 1.788 7.107 4.353 9.255 7.686 2.144 3.341 3.215 7.3 3.215 11.891 0 4.707-1.146 8.761-3.444 12.157-2.292 3.396-5.582 5.932-9.875 7.599l14.395 20.56h-12.518zm-4.201-49.524c-2.622-2.143-6.466-3.218-11.533-3.218h-13.588v24.94h13.588c5.067 0 8.911-1.088 11.533-3.264 2.622-2.172 3.934-5.258 3.934-9.25 0-3.994-1.312-7.064-3.934-9.208m36.651 48.049c-1.431-1.399-2.146-3.173-2.146-5.317 0-2.205.7-3.994 2.1-5.364 1.399-1.369 3.143-2.055 5.234-2.055 2.083 0 3.825.686 5.227 2.055 1.401 1.37 2.102 3.159 2.102 5.364 0 2.145-.716 3.918-2.146 5.317-1.432 1.404-3.16 2.103-5.182 2.103-2.031-.001-3.761-.699-5.189-2.103"/></g><path d="M141.063 343.352c-7.019-7.577-21.241 6.562-21.241 6.562-13.819 12.077-33.419 30.243-46.658 43.458a194.505 194.505 0 0 0-28.474 36.232c-9.198 16.119-13.797 29.055-13.797 38.834 0 7.479 2.301 13.238 6.898 17.256 6.341 6.34 15.817 9.477 28.475 9.477 8.617 0 18.395-1.418 29.334-4.297 21.855-5.76 44.849-15.398 69.003-28.916 24.154-13.494 44.291-28.312 60.387-44.432 14.957-14.934 24.293-28.033 28.033-39.25 3.74-11.219 5.62-19.695 5.62-25.432 0-12.658-4.32-25.595-12.936-38.834-3.461-5.179-7.364-9.918-11.218-14.654-6.285-7.723-35.373-36.233-35.373-36.233a327.322 327.322 0 0 1-33.654-35.372c-8.617-10.359-15.097-19.974-19.417-28.916-4.297-8.896-6.458-16.515-6.458-22.855 0-6.316 1.138-12.635 3.438-18.975 8.641-21.274 26.454-46.289 53.489-75.064 27.034-28.754 50.909-48.31 71.606-58.646 4.017-1.741 6.918-2.601 8.638-2.601 1.139 0 1.998.301 2.579.859 1.16.58 1.74 1.439 1.74 2.602 0 1.16-.301 2.298-.883 3.437-1.159 3.461-2.878 6.898-5.156 10.359v.859c-.578 1.162-1.462 2.741-2.601 4.738-1.16 2.02-1.881 3.763-2.16 5.18a18.968 18.968 0 0 0-.417 3.879v1.742c0 .58.279.859.86.859.557 0 1.416-.279 2.576-.859 4.6-2.3 9.5-6.897 14.68-13.82 5.18-6.897 8.315-12.634 9.476-17.233 1.161-4.599 1.741-7.781 1.741-9.499 0-5.179-2.321-9.198-6.921-12.077C288.839.582 285.379 0 281.941 0c-4.621 0-9.5.86-14.68 2.578-9.777 4.041-17.536 8.339-23.295 12.937-20.135 14.377-43.268 35.535-69.443 63.406-26.176 27.917-43.573 53.07-52.188 75.482-1.719 6.923-2.579 13.821-2.579 20.719 0 9.197 1.718 17.837 5.156 25.873 6.34 14.377 14.957 27.917 25.897 40.552 9.778 11.52 20.392 23.017 31.912 34.514 0 0 16.601 16.571 33.653 33.63 4.897 4.899 8.896 10.359 12.937 15.539 6.898 9.777 10.359 19.278 10.359 28.474 0 4.599-.883 8.919-2.602 12.937-4.599 13.238-12.379 25.316-23.295 36.232-14.377 14.957-33.515 29.055-57.367 42.271-23.877 13.236-45.849 22.156-65.984 26.732-6.34 1.74-12.078 2.6-17.257 2.6-5.737 0-10.637-1.137-14.679-3.461-4.018-2.275-6.038-6.037-6.038-11.217 0-5.156 1.741-11.195 5.179-18.117 8.06-13.795 17.838-26.43 29.335-37.95 14.375-14.376 29.412-27.798 44.872-40.551 5.565-4.591 15.309-13.265 9.229-19.828zm532.68-103.856c-2.86 0-8.002 1.43-15.404 4.289-13.721 6.295-29.424 10.561-47.111 12.844-6.848.577-13.421.853-19.716.853-10.838 0-22.99-1.705-36.388-5.142-13.421-3.413-23.845-11.69-31.27-24.835-1.152-2.284-1.706-4.289-1.706-5.996 0-.553.139-1.568.415-2.998.3-1.406 1.291-3.551 2.998-6.41h.876c15.404-26.265 26.818-46.534 34.243-60.831 9.132-18.84 13.722-33.391 13.722-43.676 0-6.272-1.73-11.137-5.144-14.573-1.729-2.26-4.012-3.413-6.848-3.413-8.025 0-19.439 9.985-34.268 29.978-8.578 11.991-15.427 25.688-20.568 41.115-3.989 13.144-5.995 25.688-5.995 37.68v12.843c.576 2.883.876 5.143.876 6.872a9.018 9.018 0 0 1-1.291 4.704c-.854 1.43-2.146 3.575-3.852 6.411-24.559 37.126-50.409 72.821-77.526 107.065-27.118 34.266-49.256 55.69-66.389 64.245-2.283.576-4.267.854-5.996.854-8.555 0-14.551-8.832-17.985-26.541-1.707-10.84-2.56-22.553-2.56-35.121 0-14.851 1.405-34.267 4.289-58.249 2.629-22.16 5.995-40.17 10.1-54.029.346-1.153.691-2.26 1.037-3.343 1.131-3.436 2.121-6.134 2.998-8.14.139-.346.276-.669.438-.969.761-1.591 1.591-2.974 2.56-4.174a77.794 77.794 0 0 0 3.412-4.704c1.131-1.153 2.859-3.136 5.144-5.995 2.858-3.436 4.289-7.425 4.289-12.014 0-5.12-1.431-9.409-4.289-12.844-2.284-2.26-4.289-3.413-5.996-3.413s-3.712.853-5.996 2.559c-2.282 1.707-4.864 5.281-7.701 10.723-2.883 5.419-5.442 11-7.725 16.695-2.606 6.941-5.004 15.058-7.195 24.351-1.614 6.779-3.112 14.182-4.473 22.207-1.685 9.8-3.229 20.568-4.591 32.236-2.858 21.699-4.287 42.545-4.287 62.539 0 12.566.576 24.834 1.705 36.825 2.283 22.275 8.279 36.549 17.988 42.822 3.988 2.859 8.577 4.289 13.719 4.289 6.272 0 12.845-2.006 19.693-5.996 18.263-11.414 40.538-34.127 66.803-68.094 26.266-33.967 51.401-69.525 75.383-106.651 1.707-3.989 3.713-5.995 5.996-5.995 1.705 0 3.412 1.153 5.142 3.437 15.979 18.286 38.533 27.394 67.657 27.394h4.289c27.395 0 52.253-5.419 74.506-16.256 10.838-5.719 16.28-9.984 16.28-12.845v-.876c-.576-1.132-2.007-1.707-4.288-1.707m-155.031-46.258c-.577 0-.854-.854-.854-2.56 0-1.129.276-2.859.854-5.142 1.707-10.284 4.727-20.685 8.993-31.27 4.289-10.561 9.27-19.554 14.989-26.979 4.564-5.695 8-8.554 10.283-8.554.555 0 1.131.576 1.707 1.706.576.576.854 1.429.854 2.583 0 4.566-2.859 12.267-8.555 23.105-4.59 9.732-12.291 23.429-23.13 41.115-2.281 4.013-3.987 5.996-5.141 5.996m-22.858 179.138a15.892 15.892 0 0 0-5.144-.854c-3.411 0-6.848 1.152-10.261 3.412-4.012 2.283-5.995 6.295-5.995 11.992v1.729c2.26 8.555 5.695 13.697 10.262 15.404 1.729.576 3.436.854 5.142.854 2.86 0 6.134-1.408 9.847-4.268 3.713-2.857 5.581-7.725 5.581-14.572-1.154-7.402-4.29-11.99-9.432-13.697m138.62 132.341c-.976 4.689-12.194 1.962-12.194 1.962-77.074-16.577-160.206-19.719-239.04-13.615-66.16 5.123-131.49 20.301-196.243 41.214-79.559 25.697-137.518 59.278-162.617 76.284-15.927 10.791-22.449-.728-22.449-.728-7.59-10.824 9.642-19.818 9.642-19.818 26.269-15.83 85.664-48.392 169.833-75.575 66.616-21.518 133.001-32.055 201.113-37.329 81.422-6.309 162.87 2.725 242.073 20.408 0 0 10.849 2.338 9.882 7.197z" fill="#FFF"/></svg>