<svg xmlns="http://www.w3.org/2000/svg" width="798.708" height="646.725" viewbox="0 0 798.708 646.725"><path fill="#FFF" d="M151.074 354.912c-7.019-7.577-21.241 6.562-21.241 6.562-13.819 12.077-33.419 30.243-46.658 43.458a194.505 194.505 0 0 0-28.474 36.232c-9.198 16.119-13.797 29.055-13.797 38.834 0 7.479 2.301 13.238 6.898 17.256 6.341 6.34 15.817 9.477 28.475 9.477 8.617 0 18.395-1.418 29.334-4.297 21.855-5.76 44.849-15.398 69.003-28.916 24.154-13.494 44.291-28.312 60.387-44.432 14.957-14.934 24.293-28.033 28.033-39.25 3.74-11.219 5.62-19.695 5.62-25.432 0-12.658-4.32-25.595-12.936-38.834-3.461-5.179-7.364-9.918-11.218-14.654-6.285-7.723-35.373-36.233-35.373-36.233a327.322 327.322 0 0 1-33.654-35.372c-8.617-10.359-15.097-19.974-19.417-28.916-4.297-8.896-6.458-16.515-6.458-22.855 0-6.316 1.138-12.635 3.438-18.975 8.641-21.274 26.454-46.289 53.489-75.064 27.034-28.754 50.909-48.31 71.606-58.646 4.017-1.741 6.918-2.601 8.638-2.601 1.139 0 1.998.301 2.579.859 1.16.58 1.74 1.439 1.74 2.602 0 1.16-.301 2.298-.883 3.437-1.159 3.461-2.878 6.898-5.156 10.359v.859c-.578 1.162-1.462 2.741-2.601 4.738-1.16 2.02-1.881 3.763-2.16 5.18a18.968 18.968 0 0 0-.417 3.879v1.742c0 .58.279.859.86.859.557 0 1.416-.279 2.576-.859 4.6-2.3 9.5-6.897 14.68-13.82 5.18-6.897 8.315-12.634 9.476-17.233 1.161-4.599 1.741-7.781 1.741-9.499 0-5.179-2.321-9.198-6.921-12.077-3.437-1.138-6.896-1.719-10.335-1.719-4.621 0-9.5.86-14.68 2.578-9.777 4.041-17.536 8.339-23.295 12.937-20.135 14.377-43.268 35.535-69.443 63.406-26.176 27.917-43.573 53.07-52.188 75.482-1.719 6.923-2.579 13.821-2.579 20.719 0 9.197 1.718 17.837 5.156 25.873 6.34 14.377 14.957 27.917 25.897 40.552 9.778 11.52 20.392 23.017 31.912 34.514 0 0 16.601 16.571 33.653 33.63 4.897 4.899 8.896 10.359 12.937 15.539 6.898 9.777 10.359 19.278 10.359 28.474 0 4.599-.883 8.919-2.602 12.937-4.599 13.238-12.379 25.316-23.295 36.232-14.377 14.957-33.515 29.055-57.367 42.271-23.877 13.236-45.849 22.156-65.984 26.732-6.34 1.74-12.078 2.6-17.257 2.6-5.737 0-10.637-1.137-14.679-3.461-4.018-2.275-6.038-6.037-6.038-11.217 0-5.156 1.741-11.195 5.179-18.117 8.06-13.795 17.838-26.43 29.335-37.95 14.375-14.376 29.412-27.798 44.872-40.551 5.569-4.592 15.313-13.267 9.233-19.829zM793.133 194.821c-3.718 0-10.4 1.858-20.021 5.575-17.834 8.182-38.245 13.727-61.234 16.694-8.9.75-17.444 1.108-25.626 1.108-14.087 0-29.882-2.216-47.296-6.683-17.444-4.437-30.993-15.195-40.644-32.28-1.498-2.969-2.217-5.575-2.217-7.793 0-.718.18-2.038.539-3.897.39-1.827 1.678-4.615 3.897-8.332h1.139c20.022-34.138 34.858-60.483 44.508-79.066 11.87-24.488 17.835-43.401 17.835-56.77 0-8.152-2.249-14.475-6.685-18.941C655.079 1.499 652.113 0 648.427 0c-10.432 0-25.267 12.978-44.541 38.964-11.149 15.586-20.051 33.389-26.734 53.44-5.186 17.084-7.792 33.388-7.792 48.976v16.693c.749 3.748 1.139 6.685 1.139 8.932 0 2.219-.57 4.257-1.678 6.114-1.109 1.859-2.789 4.647-5.006 8.333-31.92 48.255-65.521 94.651-100.767 139.161-35.248 44.538-64.021 72.384-86.291 83.504-2.968.748-5.545 1.109-7.793 1.109-11.119 0-18.913-11.48-23.377-34.498-2.219-14.089-3.327-29.314-3.327-45.649 0-19.302 1.826-44.539 5.575-75.71 3.417-28.803 7.792-52.212 13.127-70.226.45-1.499.899-2.937 1.348-4.345 1.47-4.466 2.757-7.973 3.897-10.58.18-.45.359-.87.57-1.26.989-2.068 2.068-3.866 3.327-5.426a100.946 100.946 0 0 0 4.435-6.114c1.47-1.499 3.717-4.076 6.686-7.792 3.715-4.466 5.575-9.651 5.575-15.616 0-6.655-1.859-12.229-5.575-16.694-2.969-2.938-5.575-4.436-7.793-4.436s-4.825 1.108-7.794 3.326c-2.966 2.219-6.322 6.864-10.01 13.938-3.747 7.043-7.074 14.297-10.04 21.7-3.388 9.021-6.504 19.572-9.353 31.651-2.098 8.812-4.045 18.433-5.813 28.864-2.19 12.737-4.198 26.734-5.967 41.9-3.715 28.204-5.572 55.299-5.572 81.287 0 16.333.749 32.279 2.216 47.864 2.968 28.953 10.761 47.506 23.381 55.659 5.184 3.717 11.148 5.575 17.831 5.575 8.153 0 16.695-2.607 25.597-7.794 23.737-14.835 52.69-44.357 86.829-88.507 34.139-44.149 66.81-90.368 97.98-138.623 2.219-5.185 4.826-7.792 7.793-7.792 2.216 0 4.435 1.499 6.683 4.466 20.77 23.768 50.084 35.605 87.939 35.605h5.575c35.607 0 67.917-7.043 96.84-21.129 14.087-7.433 21.161-12.977 21.161-16.695v-1.138c-.75-1.469-2.609-2.216-5.575-2.216m-201.505-60.126c-.75 0-1.109-1.11-1.109-3.327 0-1.467.359-3.716 1.109-6.683 2.219-13.367 6.144-26.885 11.689-40.644 5.575-13.726 12.048-25.415 19.482-35.067 5.933-7.403 10.398-11.119 13.366-11.119.721 0 1.47.748 2.219 2.217.749.749 1.109 1.857 1.109 3.357 0 5.935-3.716 15.944-11.119 30.031-5.965 12.649-15.976 30.452-30.063 53.44-2.966 5.218-5.183 7.795-6.683 7.795M525.865 394.936a15.892 15.892 0 0 0-5.144-.854c-3.411 0-6.848 1.152-10.261 3.412-4.012 2.283-5.995 6.295-5.995 11.992v1.729c2.26 8.555 5.695 13.697 10.262 15.404 1.729.576 3.436.854 5.142.854 2.86 0 6.134-1.408 9.847-4.268 3.713-2.857 5.581-7.725 5.581-14.572-1.154-7.402-4.291-11.99-9.432-13.697M660.025 531.817c-1.015 4.879-12.685 2.041-12.685 2.041-80.178-17.244-166.658-20.513-248.667-14.163-68.824 5.329-136.785 21.118-204.146 42.873-82.762 26.732-143.056 61.666-169.165 79.356-16.568 11.226-23.353-.757-23.353-.757-7.896-11.26 10.03-20.616 10.03-20.616 27.327-16.468 89.113-50.341 176.672-78.619 69.299-22.384 138.357-33.346 209.212-38.832 84.701-6.562 169.429 2.834 251.822 21.23.001.001 11.287 2.432 10.28 7.487z"/></svg>
