<svg xmlns="http://www.w3.org/2000/svg" width="612" height="606.648" viewBox="0 92.676 612 606.648"><path d="M322.019 330.566c-43.438 0-78.78 35.341-78.78 78.781 0 43.44 35.342 78.781 78.78 78.781 43.442 0 78.784-35.342 78.784-78.781-.001-43.44-35.342-78.781-78.784-78.781zm0 127.752c-27.003 0-48.97-21.969-48.97-48.972 0-27.004 21.969-48.971 48.97-48.971 27.004 0 48.974 21.969 48.974 48.971-.001 27.003-21.97 48.972-48.974 48.972zm287.946-185.182c5.802-42.637-.858-78.902-19.264-105.69a52.652 52.652 0 0 0 4.703-21.782c0-29.217-23.769-52.987-52.987-52.987-19.744 0-36.989 10.864-46.104 26.919-49.918-2.495-111.035 15.848-174.297 52.394-108.011-62.422-205.803-69.921-256.532-19.174-22.047 22.047-33.466 53.594-33.414 91.707C13.226 252.652 0 271.406 0 293.198c0 29.217 23.77 52.987 52.987 52.987.307 0 .61-.018.916-.024 8.15 20.727 18.458 41.904 30.755 63.187-62.422 108.009-69.919 205.801-19.175 256.53 22.387 22.393 53.927 33.447 91.473 33.446 47.542-.002 104.71-17.742 165.06-52.618 60.354 34.879 117.516 52.618 165.062 52.618 37.545 0 69.095-11.054 91.484-33.443 50.741-50.741 43.23-148.538-19.209-256.542 27.464-47.542 44.934-94.477 50.612-136.203zm-67.548-150.65c12.779 0 23.178 10.398 23.178 23.177s-10.398 23.177-23.178 23.177c-12.778 0-23.177-10.398-23.177-23.177s10.397-23.177 23.177-23.177zm-52.857 26.695c1.818 27.582 24.823 49.47 52.857 49.47a52.672 52.672 0 0 0 27.704-7.841c11.034 20.034 14.601 46.746 10.306 78.309-4.608 33.878-18.028 71.949-39.036 111.192-23.949-36.323-52.731-71.389-85.838-104.498-33.105-33.105-68.182-61.895-104.523-85.864 50.886-27.286 98.942-41.439 138.53-40.768zM52.987 316.375c-12.779 0-23.177-10.397-23.177-23.177 0-12.779 10.398-23.177 23.177-23.177s23.177 10.398 23.177 23.177c.001 12.779-10.397 23.177-23.177 23.177zm29.461 20.841c14.178-9.519 23.527-25.697 23.527-44.019 0-26.181-19.094-47.976-44.084-52.224.604-28.402 9.015-51.42 24.674-67.08 38.114-38.125 117.635-31.421 206.416 16.071-36.335 23.966-71.4 52.75-104.499 85.849-33.103 33.103-61.889 68.172-85.854 104.508-7.786-14.541-14.524-28.95-20.18-43.105zM86.561 644.8c-38.124-38.112-31.421-117.636 16.071-206.413 23.965 36.333 52.749 71.399 85.848 104.498 33.1 33.099 68.165 61.883 104.499 85.849-88.781 47.488-168.301 54.192-206.418 16.066zm123-122.995c-35.511-35.511-65.804-73.306-90.151-112.457 24.345-39.15 54.639-76.945 90.151-112.458 35.512-35.511 73.306-65.805 112.457-90.151 39.15 24.347 76.946 54.64 112.457 90.151 35.522 35.523 65.812 73.317 90.138 112.458-24.325 39.138-54.614 76.934-90.138 112.457-35.511 35.512-73.307 65.806-112.457 90.151-39.15-24.346-76.947-54.64-112.457-90.151zm347.922 122.996c-38.126 38.122-117.651 31.421-206.431-16.068 36.334-23.965 71.399-52.749 104.499-85.849 33.109-33.108 61.889-68.175 85.837-104.495 47.503 88.773 54.215 168.295 16.095 206.412z" fill="currentColor"/></svg>