<svg xmlns="http://www.w3.org/2000/svg" width="612" height="612" viewBox="0 90 612 612"><path d="M333.492 525.094c0 26.364 21.448 47.812 47.812 47.812h56.18c26.364 0 47.812-21.448 47.812-47.812v-56.18c0-26.364-21.448-47.812-47.812-47.812h-56.18c-26.364 0-47.812 21.448-47.812 47.812v56.18zm47.813-56.18h56.18l.03 56.179-.03.001h-56.18v-56.18zm80.086-151.805c13.203 0 23.906 10.703 23.906 23.906s-10.703 23.906-23.906 23.906-23.906-10.703-23.906-23.906 10.703-23.906 23.906-23.906zm-103.993 0c13.203 0 23.906 10.703 23.906 23.906s-10.703 23.906-23.906 23.906-23.906-10.703-23.906-23.906 10.703-23.906 23.906-23.906zM588.094 510.75c13.203 0 23.906-10.703 23.906-23.906V233.438c0-52.728-42.897-95.625-95.625-95.625h-31.078v-23.906c0-13.204-10.703-23.906-23.906-23.906s-23.906 10.703-23.906 23.906v23.906H328.711v-23.906c0-13.204-10.703-23.906-23.906-23.906-13.204 0-23.906 10.703-23.906 23.906v23.906H173.32v-23.906c0-13.204-10.703-23.906-23.906-23.906s-23.906 10.703-23.906 23.906v23.906H95.625C42.897 137.812 0 180.71 0 233.438v372.938C0 659.103 42.897 702 95.625 702h420.75C569.103 702 612 659.103 612 606.375c0-13.203-10.703-23.906-23.906-23.906s-23.906 10.703-23.906 23.906c0 26.364-21.448 47.812-47.812 47.812H95.625c-26.364 0-47.812-21.448-47.812-47.812V233.438c0-26.364 21.449-47.812 47.812-47.812h29.883v23.906c0 13.204 10.703 23.906 23.906 23.906s23.906-10.703 23.906-23.906v-23.906h107.578v23.906c0 13.204 10.703 23.906 23.906 23.906s23.906-10.703 23.906-23.906v-23.906h108.773v23.906c0 13.204 10.703 23.906 23.906 23.906s23.906-10.703 23.906-23.906v-23.906h31.078c26.364 0 47.812 21.449 47.812 47.812v253.406c.003 13.203 10.706 23.906 23.909 23.906zm-438.68 14.344c13.203 0 23.906 10.703 23.906 23.906s-10.703 23.906-23.906 23.906-23.906-10.703-23.906-23.906 10.703-23.906 23.906-23.906zm0-207.985c13.203 0 23.906 10.703 23.906 23.906s-10.703 23.906-23.906 23.906-23.906-10.703-23.906-23.906 10.703-23.906 23.906-23.906zm0 103.993c13.203 0 23.906 10.703 23.906 23.906s-10.703 23.906-23.906 23.906-23.906-10.703-23.906-23.906 10.703-23.906 23.906-23.906zm103.992 0c13.203 0 23.906 10.703 23.906 23.906s-10.703 23.906-23.906 23.906-23.906-10.703-23.906-23.906 10.703-23.906 23.906-23.906zm0-103.993c13.203 0 23.906 10.703 23.906 23.906s-10.703 23.906-23.906 23.906-23.906-10.702-23.906-23.905 10.703-23.907 23.906-23.907zm0 207.985c13.203 0 23.906 10.703 23.906 23.906s-10.703 23.906-23.906 23.906S229.5 562.203 229.5 549s10.703-23.906 23.906-23.906z" fill="currentColor"/></svg>