<svg xmlns="http://www.w3.org/2000/svg" width="612" height="612" viewBox="0 90 612 612"><path d="M306 90C137.276 90 0 227.265 0 396s137.276 306 306 306 306-137.265 306-306S474.724 90 306 90zm0 588.462c-155.742 0-282.461-126.72-282.461-282.462S150.258 113.539 306 113.539 588.462 240.258 588.462 396 461.742 678.462 306 678.462zm144.196-407.969L269.315 473.982l-108.972-87.174c-5.061-4.06-12.487-3.225-16.536 1.836-4.06 5.084-3.236 12.488 1.836 16.547l117.692 94.154a11.754 11.754 0 0 0 7.356 2.577c3.248 0 6.485-1.342 8.803-3.954l188.308-211.846c4.319-4.849 3.884-12.299-.978-16.606a11.76 11.76 0 0 0-16.628.977z" fill="currentColor"/></svg>