<svg xmlns="http://www.w3.org/2000/svg" width="512" height="512"><path d="M512 329.045s-.256-169.109 0-166.954c-.938-5.632-1.707-10.027-7.68-13.675C260.074 3.542 263.531-7.253 247.68 2.325 62.571 117.397 11.051 143.062 3.648 152.021-3.072 158.912 0 169.472 0 329.045-.448 347.2 165.184 445.568 245.739 508.331c7.104 5.056 16.042 4.245 21.397-.619C506.581 337.984 512.405 344.811 512 329.045zM272 44.48l194.688 118.507-99.264 69.056L272 173.974V44.48zm-32-.022v129.579c-37.099 23.019-68.458 42.24-94.955 58.326l-99.733-69.376L240 44.458zM32 192.704l83.051 57.792C75.072 274.539 48.96 289.813 32 299.989V192.704zm208 272.661L45.312 329.92l98.112-59.712L240 337.387v127.978zm16-155.818l-82.688-57.536L256 201.686l82.688 50.325L256 309.547zm16 155.84V337.408l96.576-67.179 98.111 59.712L272 465.387zm208-164.822l-82.688-50.325L480 192.704v107.861z" fill="currentColor"/></svg>