<svg xmlns="http://www.w3.org/2000/svg" width="512.002" height="490.669" viewBox="-0.001 -0.002 512.002 490.669"><path d="M186.667 375.723v98.944c0 6.912 4.438 13.034 11.008 15.21 1.643.533 3.328.79 4.992.79 4.992 0 9.813-2.347 12.885-6.528l57.878-78.763-86.763-29.653zM505.28 2.965c-4.907-3.478-11.35-3.947-16.683-1.152l-480 250.667c-5.674 2.965-9.024 9.024-8.555 15.403a16.012 16.012 0 0 0 10.773 13.931l133.44 45.61L428.438 84.438 208.533 349.376l223.638 76.438c1.664.555 3.413.854 5.162.854 2.901 0 5.781-.79 8.32-2.325a16.082 16.082 0 0 0 7.51-11.307l58.666-394.667a16.028 16.028 0 0 0-6.549-15.404z" fill="currentColor"/></svg>