<svg xmlns="http://www.w3.org/2000/svg" width="611.999" height="436.061" viewBox="0 177.97 611.999 436.061"><path d="M611.548 221.842c0-.699.481-1.38.449-2.071L425.236 399.726l186.538 174.206c.108-1.245-.227-2.5-.227-3.771V221.842h.001zm-214.82 205.576l-76.242 73.354a19.886 19.886 0 0 1-13.826 5.573 19.881 19.881 0 0 1-13.595-5.353l-76.034-70.852L29.274 611.116c4.565 1.641 9.466 2.914 14.598 2.914h525.577c7.621 0 14.768-2.321 20.981-5.783L396.728 427.418zm-90.287 31.523L591.465 184.38c-6.453-3.837-13.964-6.411-22.016-6.411H43.872c-10.484 0-20.091 4.071-27.573 10.279l290.142 270.693zM0 228.529v341.626c0 3.922.901 7.703 1.88 11.316L187.307 402.91 0 228.529z" fill="currentColor"/></svg>