<svg xmlns="http://www.w3.org/2000/svg" width="589.392" height="576.024" viewBox="0 107.976 589.392 576.024"><path d="M471.348 395.64a29.302 29.302 0 0 0-21.42 8.136 28.005 28.005 0 0 0-8.279 20.916V597.6a28.655 28.655 0 0 1-7.92 20.952c-5.293 5.4-12.312 8.101-21.061 8.101H88.308a28.113 28.113 0 0 1-21.024-8.101 28.652 28.652 0 0 1-7.92-20.952V280.872c0-9 2.628-16.092 7.92-21.276s12.312-7.776 21.06-7.776H264.96c9.216 0 16.452-2.592 21.744-7.74 5.292-5.184 7.92-12.276 7.92-21.276a27.506 27.506 0 0 0-7.92-20.592c-5.292-5.184-12.528-7.776-21.744-7.776H88.344c-24.84 0-45.792 8.208-62.82 24.66C8.496 235.512 0 256.104 0 280.872v316.692c0 24.3 8.496 44.783 25.56 61.451C42.552 675.684 63.504 684 88.344 684h324.36c24.84 0 45.72-8.316 62.784-24.984a82.619 82.619 0 0 0 25.523-61.451V424.692a28.009 28.009 0 0 0-8.279-20.916 29.308 29.308 0 0 0-21.385-8.101v-.035zM585.9 124.92a31.815 31.815 0 0 0-6.229-8.1 32.4 32.4 0 0 0-8.28-6.084 9.286 9.286 0 0 0-5.867-2.376 71.013 71.013 0 0 0-5.868-.36H383.04a30.024 30.024 0 0 0-21.384 7.776 26.893 26.893 0 0 0-8.28 20.592c0 9 2.736 16.092 8.28 21.24a30.024 30.024 0 0 0 21.384 7.776h106.272l-273.96 268.092a27.54 27.54 0 0 0-9 20.269c0 7.632 3.024 14.399 9 20.231a28.785 28.785 0 0 0 8.964 6.12c3.24 1.332 7.128 2.017 11.736 2.017a28.32 28.32 0 0 0 11.052-2.053c3.24-1.331 6.444-3.348 9.648-6.084L530.028 205.92v103.32c0 9 2.771 16.092 8.279 21.24a30.028 30.028 0 0 0 21.385 7.776 30.24 30.24 0 0 0 21.42-7.74c5.508-5.184 8.279-12.276 8.279-21.276V136.368c0-1.368-.144-3.24-.359-5.76a7.631 7.631 0 0 0-3.097-5.76l-.035.072z" fill="currentColor"/></svg>