<svg xmlns="http://www.w3.org/2000/svg" width="477.902" height="612" viewBox="67.049 90 477.902 612"><path d="M505.712 90H179.04c-21.638 0-39.239 17.602-39.239 39.24v33.515h-44.75c-15.441 0-28.002 12.563-28.002 28.003v483.241c0 15.44 12.562 28.001 28.002 28.001h349.132c15.441 0 28.003-12.562 28.003-28.001v-44.754h33.523c21.638 0 39.241-17.604 39.241-39.241V129.24c.001-21.638-17.602-39.24-39.238-39.24zm-61.785 583.74H95.308V191.012h224.999v91.64c0 17.634 14.346 31.98 31.98 31.98h91.64V673.74zm-95.359-462.743l75.378 75.378h-71.658a3.724 3.724 0 0 1-3.72-3.72v-71.658zm157.144 389.987h-33.524V300.505c0-.115-.018-.218-.025-.327-.084-3.562-1.491-7.042-4.112-9.665l-123.623-123.62c-.006-.006-.013-.009-.018-.015a14.084 14.084 0 0 0-9.973-4.122H168.06V129.24c0-6.053 4.925-10.979 10.979-10.979h326.67c6.055 0 10.98 4.925 10.98 10.979v460.764h.001c.001 6.055-4.923 10.98-10.978 10.98z" fill="currentColor"/></svg>