<svg xmlns="http://www.w3.org/2000/svg" width="458.902" height="611.999" viewBox="76.548 90 458.902 611.999"><path d="M535.426 245.037c-.106-3.582-1.533-7.077-4.172-9.715L390.13 94.197c-.006-.006-.012-.008-.017-.014A14.28 14.28 0 0 0 379.998 90H106.715c-16.635 0-30.167 13.531-30.167 30.166v551.667c0 16.634 13.531 30.166 30.166 30.166h398.569c16.635 0 30.167-13.531 30.167-30.166v-426.38c.002-.141-.014-.278-.024-.416zM394.327 138.925l92.201 92.201h-86.153a6.053 6.053 0 0 1-6.047-6.047l-.001-86.154zm112.466 532.91a1.51 1.51 0 0 1-1.508 1.506h-398.57a1.509 1.509 0 0 1-1.507-1.507V120.166c0-.831.676-1.507 1.507-1.507h258.954v106.42c0 19.136 15.568 34.706 34.706 34.706h106.42v412.05h-.002z" fill="currentColor"/></svg>