<svg xmlns="http://www.w3.org/2000/svg" width="458.902" height="611.999" viewBox="76.548 90 458.902 611.999"><path d="M535.42 213.869c-.041-3.677-1.463-7.279-4.166-9.983L421.566 94.197l-.013-.01A14.277 14.277 0 0 0 411.433 90H106.715c-16.635 0-30.167 13.531-30.167 30.166v551.667c0 16.634 13.531 30.166 30.166 30.166h398.569c16.635 0 30.167-13.531 30.167-30.166V214.017c.002-.052-.025-.097-.03-.148zm-109.657-74.944l60.763 60.763h-59.254c-.83 0-1.508-.678-1.508-1.509l-.001-59.254zm81.029 532.909a1.51 1.51 0 0 1-1.507 1.507h-398.57a1.509 1.509 0 0 1-1.507-1.507V120.166c0-.831.676-1.507 1.507-1.507h290.389v79.521c0 16.634 13.533 30.168 30.168 30.168h79.521l-.001 443.486zm-73.983-385.786H179.192c-7.913 0-14.33 6.416-14.33 14.33 0 7.913 6.417 14.33 14.33 14.33h253.615c7.913 0 14.33-6.417 14.33-14.33.001-7.915-6.417-14.33-14.328-14.33zm0 86.468H179.192c-7.913 0-14.33 6.417-14.33 14.33s6.417 14.33 14.33 14.33h253.615c7.913 0 14.33-6.417 14.33-14.33.001-7.914-6.417-14.33-14.328-14.33zm0 86.466H179.192c-7.913 0-14.33 6.416-14.33 14.329 0 7.914 6.417 14.329 14.33 14.329h253.615c7.913 0 14.33-6.415 14.33-14.329.001-7.912-6.417-14.329-14.328-14.329zM306 545.451H179.192c-7.913 0-14.33 6.416-14.33 14.329 0 7.914 6.417 14.33 14.33 14.33H306c7.913 0 14.329-6.416 14.329-14.33s-6.416-14.329-14.329-14.329z" fill="currentColor"/></svg>