<svg xmlns="http://www.w3.org/2000/svg" width="612" height="524.805" viewBox="0 133.598 612 524.805"><path d="M579.843 185.745H348.966a19.336 19.336 0 0 1-12.604-4.686l-42.353-36.536a45.076 45.076 0 0 0-29.4-10.925H112.865c-17.731 0-32.158 14.426-32.158 32.158v42.98h-48.55C14.426 208.735 0 223.161 0 240.893v385.353c0 17.73 14.426 32.157 32.158 32.157h466.976c17.731 0 32.157-14.427 32.157-32.157v-42.971h48.552c17.731 0 32.157-14.427 32.157-32.157V217.902c0-17.733-14.426-32.157-32.157-32.157zm-74.278 440.5a6.44 6.44 0 0 1-6.432 6.432H32.158a6.44 6.44 0 0 1-6.432-6.432V361.848h479.839v264.397zm0-290.123H25.726v-95.228a6.439 6.439 0 0 1 6.432-6.432h151.736c4.625 0 9.099 1.663 12.601 4.685l42.354 36.527a45.037 45.037 0 0 0 29.402 10.926h230.882a6.44 6.44 0 0 1 6.432 6.432v43.09zm80.709 214.995a6.44 6.44 0 0 1-6.432 6.432H531.29V293.031c0-17.731-14.426-32.158-32.157-32.158H268.252a19.3 19.3 0 0 1-12.602-4.683l-42.354-36.525a45.035 45.035 0 0 0-29.402-10.929h-77.461v-42.981a6.44 6.44 0 0 1 6.432-6.432H264.61c4.619 0 9.098 1.667 12.604 4.686l42.352 36.536a45.08 45.08 0 0 0 29.4 10.924h230.878a6.44 6.44 0 0 1 6.432 6.432l-.002 333.216zM454.391 405.695H377.36c-7.104 0-12.863 5.759-12.863 12.862s5.759 12.863 12.863 12.863h77.031c7.104 0 12.863-5.761 12.863-12.863 0-7.104-5.758-12.862-12.863-12.862zm0 61.742H377.36c-7.104 0-12.863 5.761-12.863 12.863s5.759 12.862 12.863 12.862h77.031c7.104 0 12.863-5.76 12.863-12.862s-5.758-12.863-12.863-12.863z" fill="currentColor"/></svg>