<svg xmlns="http://www.w3.org/2000/svg" width="612" height="612" viewBox="0 90 612 612"><path d="M610.947 182.339a17.953 17.953 0 0 0-12.081-14.48c-6.408-2.17-13.535-.473-18.351 4.325l-25.354 25.372c-13.553 13.552-37.174 13.552-50.726 0-14.023-14.023-14.017-36.694 0-50.708l25.354-25.354a17.922 17.922 0 0 0 4.324-18.351 17.946 17.946 0 0 0-14.479-12.081c-33.461-4.728-67.324 6.513-91.26 30.414-27.069 27.087-37.75 66.904-27.858 103.936L135.42 490.499l-.018-.018c-36.893-9.787-76.937.893-103.918 27.874-23.778 23.779-35.158 57.906-30.431 91.277a17.95 17.95 0 0 0 12.081 14.48c6.391 2.154 13.534.474 18.35-4.325l25.354-25.371c13.552-13.553 37.173-13.553 50.726 0 14.023 14.021 14.016 36.691 0 50.707L82.21 670.478a17.924 17.924 0 0 0-4.325 18.351 17.948 17.948 0 0 0 14.48 12.08c33.373 4.749 66.955-6.13 91.26-30.413 27.069-27.087 37.75-66.904 27.858-103.936l265.096-265.087.019.018c37.084 9.823 76.936-.893 103.918-27.875 23.778-23.779 35.159-57.904 30.431-91.277zM504.422 486.844c-8.491 0-17.229 1.277-27.49 3.992l-69.492-69.484-76.086 76.076 69.482 69.487c-2.715 10.277-3.992 19.016-3.992 27.507C396.844 653.744 445.1 702 504.422 702S612 653.744 612 594.422s-48.256-107.578-107.578-107.578zm58.832 103.988l-10.663 39.781a17.968 17.968 0 0 1-12.677 12.677l-39.781 10.663c-5.844 1.611-12.596.081-17.316-4.64L453.7 620.195a17.908 17.908 0 0 1-4.641-17.316l10.663-39.781a17.97 17.97 0 0 1 12.677-12.677l39.781-10.663c6.146-1.717 12.765.105 17.316 4.641l29.118 29.117a17.91 17.91 0 0 1 4.64 17.316zM211.45 224.402c9.892-37.032-.789-76.866-27.858-103.936-40.64-40.622-111.536-40.622-152.14 0-41.935 41.953-41.935 110.204 0 152.139 26.947 26.947 66.852 37.785 103.936 27.858l69.185 70.174 76.072-76.063-69.195-70.172zm-46.891-33.25l-10.663 39.781a17.968 17.968 0 0 1-12.677 12.676l-39.781 10.664c-5.844 1.611-12.596.082-17.317-4.64l-29.118-29.118a17.909 17.909 0 0 1-4.64-17.317l10.664-39.781a17.967 17.967 0 0 1 12.676-12.676l39.781-10.664c6.181-1.681 12.781.105 17.316 4.64l29.118 29.118a17.91 17.91 0 0 1 4.641 17.317z" fill="currentColor"/></svg>