<svg xmlns="http://www.w3.org/2000/svg" width="511" height="511"><path d="M510.5 150.235c-1.197-27.151-5.588-45.818-11.877-61.992-6.489-17.169-16.472-32.541-29.55-45.319-12.778-12.977-28.251-23.061-45.222-29.448-16.268-6.29-34.837-10.68-61.988-11.877C334.51.3 325.825 0 256.447 0c-69.377 0-78.062.3-105.314 1.498-27.151 1.197-45.817 5.591-61.988 11.877C71.972 19.863 56.6 29.846 43.822 42.924 30.845 55.703 20.765 71.175 14.374 88.146c-6.29 16.272-10.681 34.837-11.877 61.988C1.198 177.488.898 186.172.898 255.55s.3 78.062 1.498 105.314c1.197 27.151 5.592 45.818 11.881 61.992 6.489 17.169 16.568 32.541 29.546 45.319 12.778 12.977 28.251 23.061 45.221 29.448 16.272 6.289 34.837 10.68 61.993 11.877 27.249 1.201 35.937 1.497 105.314 1.497 69.378 0 78.062-.296 105.314-1.497 27.152-1.197 45.818-5.588 61.989-11.877a130.71 130.71 0 0 0 74.771-74.768c6.286-16.271 10.681-34.841 11.877-61.992 1.197-27.253 1.498-35.937 1.498-105.314s-.103-78.061-1.3-105.314zm-46.017 208.633c-1.1 24.956-5.291 38.432-8.785 47.416-8.587 22.262-26.255 39.93-48.517 48.517-8.983 3.493-22.558 7.686-47.416 8.781-26.952 1.201-35.036 1.497-103.217 1.497s-76.365-.296-103.22-1.497c-24.956-1.096-38.433-5.288-47.417-8.781-11.078-4.095-21.162-10.583-29.347-19.068-8.485-8.286-14.974-18.269-19.068-29.347-3.494-8.984-7.686-22.562-8.781-47.417-1.201-26.952-1.498-35.039-1.498-103.22s.296-76.366 1.498-103.217c1.096-24.956 5.288-38.433 8.781-47.417 4.094-11.082 10.583-21.162 19.169-29.351C84.947 67.279 94.93 60.79 106.012 56.7c8.984-3.494 22.562-7.686 47.417-8.786 26.953-1.197 35.04-1.497 103.217-1.497 68.282 0 76.365.3 103.221 1.497 24.956 1.1 38.432 5.292 47.416 8.786 11.078 4.09 21.162 10.579 29.347 19.064 8.485 8.286 14.974 18.269 19.068 29.351 3.494 8.984 7.686 22.558 8.785 47.417 1.197 26.953 1.497 35.036 1.497 103.217s-.299 76.167-1.497 103.119zM256.447 124.281c-72.47 0-131.269 58.795-131.269 131.269s58.799 131.269 131.269 131.269c72.475 0 131.27-58.795 131.27-131.269s-58.795-131.269-131.27-131.269zm0 216.42c-47.015 0-85.15-38.133-85.15-85.151s38.136-85.151 85.15-85.151c47.02 0 85.151 38.132 85.151 85.151s-38.131 85.151-85.151 85.151zm167.109-221.61c0 16.923-13.722 30.646-30.649 30.646-16.923 0-30.646-13.722-30.646-30.646 0-16.927 13.723-30.645 30.646-30.645 16.927 0 30.649 13.718 30.649 30.645z" fill="currentColor"/></svg>