<svg xmlns="http://www.w3.org/2000/svg" width="639.375" height="611.141" viewBox="-0.021 -0.369 639.375 611.141"><path d="M77.517-.369C30.633-.369-.021 30.418-.021 70.882c0 39.571 29.74 71.235 75.738 71.235h.89c47.801 0 77.549-31.664 77.549-71.235-.893-40.464-29.747-71.251-76.639-71.251zM8.081 198.417h137.061v412.355H8.081V198.417zm473.482-9.677c-73.939 0-123.52 69.479-123.52 69.479v-59.801H220.979v412.355h137.058V380.498c0-12.328.894-24.637 4.515-33.452 9.908-24.617 32.457-50.119 70.322-50.119 49.596 0 69.432 37.814 69.432 93.249v220.597h137.05V374.336c-.002-126.658-67.623-185.596-157.793-185.596z" fill="currentColor"/></svg>