<svg xmlns="http://www.w3.org/2000/svg" width="346.8" height="612" viewBox="132.6 90 346.8 612"><path d="M434.469 90H177.531c-24.766 0-44.931 20.166-44.931 44.931v522.127c0 24.776 20.166 44.941 44.931 44.941h256.928c24.775 0 44.941-20.165 44.941-44.931V134.931C479.4 110.166 459.234 90 434.469 90zM153 171.6h306v387.6H153V171.6zm24.531-61.2h256.928c13.535 0 24.541 11.006 24.541 24.531V151.2H153v-16.269c0-13.525 11.006-24.531 24.531-24.531zm256.938 571.2H177.531c-13.525 0-24.531-11.006-24.531-24.53V579.6h306v77.47c0 13.524-11.006 24.53-24.531 24.53zM306 589.8c-22.501 0-40.8 18.299-40.8 40.8 0 22.502 18.299 40.801 40.8 40.801s40.8-18.299 40.8-40.801c0-22.501-18.299-40.8-40.8-40.8zm0 61.2c-11.25 0-20.4-9.149-20.4-20.4 0-11.25 9.149-20.399 20.4-20.399s20.4 9.149 20.4 20.399c0 11.251-9.149 20.4-20.4 20.4zm-40.8-510H306c5.641 0 10.2-4.56 10.2-10.2s-4.56-10.2-10.2-10.2h-40.8c-5.641 0-10.2 4.559-10.2 10.2s4.56 10.2 10.2 10.2zm71.4 0h10.2c5.641 0 10.2-4.56 10.2-10.2s-4.56-10.2-10.2-10.2h-10.2c-5.641 0-10.199 4.559-10.199 10.2S330.959 141 336.6 141z" fill="currentColor"/></svg>