<svg xmlns="http://www.w3.org/2000/svg" width="611.999" height="545.212" viewBox="0 123.394 611.999 545.212"><path d="M575.056 123.394H36.946C16.574 123.394 0 139.968 0 160.339v371.527c0 20.372 16.574 36.946 36.946 36.946h184.39v26.882c0 24.645-20.05 44.694-44.694 44.694h-40.637c-7.791 0-14.108 6.316-14.108 14.108s6.317 14.108 14.108 14.108h339.991c7.791 0 14.107-6.316 14.107-14.108s-6.316-14.108-14.107-14.108h-40.639c-24.644 0-44.694-20.05-44.694-44.694v-26.881h184.39c20.372 0 36.947-16.574 36.947-36.946V160.339c.001-20.371-16.573-36.945-36.944-36.945zm-340.87 516.997c9.618-12.354 15.368-27.86 15.368-44.693v-26.883h112.894v26.883c0 16.833 5.751 32.34 15.368 44.693h-143.63zm349.598-108.524c0 4.813-3.915 8.73-8.73 8.73H36.946c-4.813 0-8.73-3.916-8.73-8.73v-74.148h555.569v74.148zm0-102.366H28.217V160.339c0-4.813 3.916-8.73 8.73-8.73h538.106c4.813 0 8.732 3.916 8.732 8.73v269.162h-.001zm-277.78 54.436c8.409 0 15.227 6.816 15.227 15.226s-6.817 15.227-15.227 15.227c-8.409 0-15.226-6.817-15.226-15.227s6.817-15.226 15.226-15.226zm24.187-263.344c-5.511-5.509-14.44-5.509-19.953 0l-99.706 99.706c-5.509 5.509-5.509 14.443 0 19.954 2.756 2.755 6.365 4.132 9.977 4.132s7.221-1.377 9.976-4.132l99.706-99.706c5.509-5.51 5.509-14.443 0-19.954zm59.097 57.78c-5.509-5.509-14.438-5.509-19.952-.001l-39.721 39.718c-5.509 5.511-5.509 14.444 0 19.954a14.063 14.063 0 0 0 9.977 4.132c3.609 0 7.221-1.377 9.976-4.132l39.721-39.718c5.508-5.51 5.508-14.444-.001-19.953z" fill="currentColor"/></svg>