<svg xmlns="http://www.w3.org/2000/svg" width="612" height="410.019" viewBox="0 190.991 612 410.019"><path d="M505.435 248.273H106.567c-7.273 0-13.171 5.896-13.171 13.171v198.929c0 7.274 5.897 13.171 13.171 13.171 7.274 0 13.171-5.896 13.171-13.171V274.614h372.524v185.758c0 7.274 5.897 13.171 13.172 13.171 7.273 0 13.171-5.896 13.171-13.171V261.443c-.001-7.274-5.899-13.17-13.17-13.17zm94.712 259.133h-24.259V230.805c0-21.953-17.86-39.813-39.813-39.813H75.926c-21.954 0-39.813 17.86-39.813 39.813v276.602H11.854C5.307 507.406 0 512.712 0 519.261v23.27c0 32.246 26.233 58.479 58.479 58.479H553.52c32.246 0 58.479-26.233 58.479-58.479v-23.27c.002-6.549-5.304-11.855-11.852-11.855zM62.454 230.805c0-7.428 6.044-13.473 13.472-13.473h460.146c7.431 0 13.473 6.043 13.473 13.473v276.602H371.204a11.565 11.565 0 0 0-2.567.211 11.851 11.851 0 0 0-9.612 11.639c0 10.006-8.14 18.145-18.144 18.145h-69.76c-10.006 0-18.144-8.14-18.144-18.145 0-6.638-5.5-11.994-12.129-11.852H62.454v-276.6zM588.293 542.53c0 19.175-15.6 34.772-34.771 34.772H58.479c-19.173 0-34.771-15.598-34.771-34.772v-11.416h207.271c5.125 17.321 21.181 29.995 40.141 29.995h69.76c18.96 0 35.017-12.675 40.143-29.995h207.272v11.416h-.002zM325.521 324.831c-5.145-5.144-13.482-5.144-18.628 0l-82.832 82.835c-5.144 5.144-5.144 13.482 0 18.626a13.129 13.129 0 0 0 9.312 3.857c3.371 0 6.74-1.287 9.312-3.857l82.834-82.834c5.146-5.143 5.146-13.483.002-18.627zm49.096 48.003c-5.145-5.143-13.481-5.143-18.626 0l-32.998 32.998c-5.144 5.144-5.144 13.483 0 18.628a13.129 13.129 0 0 0 9.312 3.857c3.372 0 6.74-1.285 9.312-3.857l32.998-32.998c5.146-5.144 5.146-13.483.002-18.628z" fill="currentColor"/></svg>