<svg xmlns="http://www.w3.org/2000/svg" width="367.88" height="611.999" viewBox="122.06 90 367.88 611.999"><path d="M306.002 589.8c-18.721 0-33.951 15.229-33.951 33.95s15.23 33.95 33.951 33.95c18.722 0 33.951-15.229 33.951-33.95s-15.23-33.95-33.951-33.95zm0 44.388c-5.756 0-10.439-4.683-10.439-10.438s4.683-10.438 10.439-10.438 10.439 4.683 10.439 10.438c-.003 5.756-4.685 10.438-10.439 10.438zm55.684-495.841h-60.247c-6.854 0-12.41 5.556-12.41 12.41s5.557 12.41 12.41 12.41h60.247c6.854 0 12.41-5.556 12.41-12.41s-5.556-12.41-12.41-12.41zm-98.344-.312c7.195 0 13.027 5.833 13.027 13.028s-5.833 13.028-13.027 13.028c-7.195 0-13.028-5.833-13.028-13.028s5.832-13.028 13.028-13.028zM450.754 90H161.247c-21.608 0-39.187 17.58-39.187 39.187v533.625c0 21.607 17.579 39.188 39.187 39.188h289.505c21.608 0 39.188-17.58 39.188-39.188V129.187C489.94 107.58 472.361 90 450.754 90zm13.062 572.812c0 7.203-5.86 13.062-13.062 13.062H161.247c-7.203 0-13.062-5.859-13.062-13.062V129.187c0-7.203 5.859-13.062 13.062-13.062h289.505c7.203 0 13.062 5.859 13.062 13.062v533.625h.002zm-135.8-327.529c-5.104-5.099-13.371-5.099-18.475 0l-62.747 62.749c-5.101 5.1-5.101 13.371.001 18.473a13.023 13.023 0 0 0 9.236 3.828c3.342 0 6.687-1.277 9.236-3.826l62.746-62.748c5.102-5.103 5.102-13.374.003-18.476zm37.19 36.363c-5.102-5.099-13.37-5.099-18.475 0l-24.996 24.996c-5.1 5.101-5.1 13.372.001 18.476 2.551 2.549 5.895 3.826 9.236 3.826s6.686-1.277 9.236-3.826l24.996-24.997c5.104-5.101 5.104-13.373.002-18.475zm59.567-184.955H187.229c-6.493 0-11.756 5.263-11.756 11.756v360.117c0 6.493 5.263 11.756 11.756 11.756h237.544c6.493 0 11.756-5.263 11.756-11.756V198.447c0-6.491-5.262-11.756-11.756-11.756zm-11.756 360.118H198.984V210.204h214.033v336.605z" fill="currentColor"/></svg>