<svg xmlns="http://www.w3.org/2000/svg" width="612.001" height="612.002" viewBox="0 90 612.001 612.002"><path d="M393.071 530.751a1287.641 1287.641 0 0 0-19.643-11.564 170.941 170.941 0 0 0 .007-39.823c6.63-3.825 13.23-7.71 19.634-11.56 10.781-6.479 15.275-20.148 10.451-31.799l-.001-.001-14.07-33.969c-4.825-11.647-17.663-18.139-29.874-15.097a1269.286 1269.286 0 0 0-22.06 5.708 171.074 171.074 0 0 0-28.165-28.154 1286.014 1286.014 0 0 0 5.711-22.066c3.042-12.206-3.448-25.048-15.096-29.874l-33.968-14.07c-11.647-4.827-25.32-.336-31.801 10.448a1279.824 1279.824 0 0 0-11.563 19.643 171.05 171.05 0 0 0-39.823-.008 1269.89 1269.89 0 0 0-11.559-19.634c-6.483-10.782-20.153-15.274-31.801-10.448l-33.968 14.07c-11.645 4.824-18.138 17.668-15.096 29.874a1259.84 1259.84 0 0 0 5.709 22.059 170.957 170.957 0 0 0-28.153 28.166 1257.13 1257.13 0 0 0-22.069-5.712c-12.209-3.044-25.049 3.452-29.875 15.098L1.931 436.004c-4.823 11.648-.33 25.318 10.449 31.797a1294.394 1294.394 0 0 0 19.643 11.565 171.097 171.097 0 0 0-.007 39.822c-6.62 3.819-13.22 7.705-19.638 11.562-10.779 6.479-15.272 20.149-10.448 31.799L16 596.518c4.824 11.646 17.661 18.14 29.875 15.097a1263.406 1263.406 0 0 0 22.057-5.709 171.106 171.106 0 0 0 28.165 28.153 1275.755 1275.755 0 0 0-5.711 22.066c-3.042 12.205 3.449 25.049 15.096 29.873l33.97 14.071a25.38 25.38 0 0 0 9.726 1.931c8.8 0 17.349-4.518 22.079-12.378a1285.375 1285.375 0 0 0 11.563-19.641 171.325 171.325 0 0 0 39.823.007c3.8 6.589 7.686 13.189 11.559 19.636 6.481 10.781 20.15 15.272 31.801 10.448l33.968-14.07c11.645-4.824 18.138-17.668 15.096-29.873a1287.914 1287.914 0 0 0-5.709-22.06 171.184 171.184 0 0 0 28.154-28.164c7.385 1.98 14.803 3.9 22.065 5.71 12.206 3.045 25.049-3.447 29.875-15.097l14.069-33.97c4.823-11.648.33-25.319-10.45-31.797zm-28.362 53.91a1241.917 1241.917 0 0 1-21.16-5.501c-10.013-2.693-20.578.827-26.918 8.974a143.634 143.634 0 0 1-25.063 25.069c-8.137 6.337-11.652 16.898-8.957 26.904a1269.382 1269.382 0 0 1 5.5 21.152l-31.224 12.933a1230.416 1230.416 0 0 1-11.068-18.845c-5.172-8.981-15.126-13.958-25.359-12.691a143.779 143.779 0 0 1-35.446-.006c-10.262-1.274-20.208 3.703-25.379 12.687a1269.961 1269.961 0 0 1-11.072 18.854l-31.224-12.934a1260.64 1260.64 0 0 1 5.502-21.158c2.696-10.011-.827-20.577-8.973-26.919a143.617 143.617 0 0 1-25.069-25.06c-6.335-8.139-16.896-11.652-26.906-8.959a1250.214 1250.214 0 0 1-21.151 5.5l-12.934-31.223a1237.466 1237.466 0 0 1 18.844-11.068c8.983-5.173 13.965-15.125 12.693-25.358a143.787 143.787 0 0 1 .004-35.447c1.276-10.244-3.702-20.207-12.689-25.38-6.34-3.65-12.675-7.371-18.853-11.075l12.933-31.223a1272.408 1272.408 0 0 1 21.16 5.501c10.007 2.696 20.574-.827 26.918-8.974a143.611 143.611 0 0 1 25.06-25.068c8.138-6.336 11.653-16.899 8.958-26.909-1.9-7.057-3.749-14.165-5.5-21.15l31.224-12.932a1249.538 1249.538 0 0 1 11.067 18.844c5.173 8.983 15.136 13.972 25.359 12.692a143.52 143.52 0 0 1 35.45.006c10.25 1.276 20.207-3.708 25.377-12.69 3.649-6.34 7.371-12.675 11.071-18.852l31.224 12.932a1252.676 1252.676 0 0 1-5.502 21.161c-2.695 10.01.827 20.576 8.973 26.917a143.72 143.72 0 0 1 25.07 25.059c6.335 8.137 16.893 11.652 26.907 8.958a1266.094 1266.094 0 0 1 21.15-5.5l12.932 31.224a1261.471 1261.471 0 0 1-18.844 11.068c-8.983 5.172-13.967 15.125-12.693 25.359a143.657 143.657 0 0 1-.006 35.449c-1.274 10.245 3.706 20.206 12.69 25.378 6.33 3.645 12.666 7.364 18.853 11.072l-12.929 31.229zm-75.728-121.113c-19.7-47.562-74.417-70.228-121.984-50.528-47.559 19.701-70.227 74.423-50.526 121.983 9.542 23.041 27.489 40.983 50.527 50.528 11.519 4.771 23.623 7.156 35.727 7.156 12.104 0 24.208-2.386 35.729-7.156 47.559-19.701 70.226-74.422 50.527-121.983zm-61.011 96.674c-16.278 6.743-34.207 6.741-50.489 0-16.278-6.743-28.957-19.423-35.701-35.702-13.922-33.604 2.095-72.271 35.702-86.189a65.597 65.597 0 0 1 25.158-5.023c25.899 0 50.52 15.348 61.033 40.725 13.919 33.603-2.098 72.268-35.703 86.189zM593.536 210.65a910.38 910.38 0 0 0-14.477-2.047 127.554 127.554 0 0 0-9.818-23.69 935.97 935.97 0 0 0 8.794-11.689c6.329-8.56 5.414-20.699-2.128-28.237l-18.896-18.893c-7.541-7.542-19.681-8.457-28.237-2.125a930.23 930.23 0 0 0-11.689 8.792 127.396 127.396 0 0 0-23.689-9.819 932.01 932.01 0 0 0-2.047-14.475C489.774 97.939 480.544 90 469.88 90h-26.723c-10.664 0-19.895 7.939-21.469 18.464a937.427 937.427 0 0 0-2.047 14.476 127.476 127.476 0 0 0-23.689 9.819 904.235 904.235 0 0 0-11.688-8.792c-8.56-6.332-20.699-5.417-28.238 2.124l-18.894 18.892c-7.542 7.54-8.459 19.681-2.127 28.241a916.057 916.057 0 0 0 8.79 11.688 127.51 127.51 0 0 0-9.818 23.69c-4.89.654-9.748 1.34-14.476 2.047-10.526 1.576-18.466 10.805-18.466 21.47v26.721c0 10.665 7.937 19.895 18.464 21.47 4.729.708 9.585 1.395 14.477 2.048a127.662 127.662 0 0 0 9.818 23.69A945.71 945.71 0 0 0 335 317.737c-6.328 8.557-5.414 20.699 2.127 28.235l18.896 18.896c7.54 7.542 19.68 8.456 28.238 2.125a920.44 920.44 0 0 0 11.688-8.791 127.484 127.484 0 0 0 23.691 9.818c.651 4.89 1.339 9.748 2.047 14.477 1.575 10.526 10.806 18.465 21.47 18.465h26.723c10.664 0 19.895-7.937 21.469-18.466a947.909 947.909 0 0 0 2.047-14.476 127.36 127.36 0 0 0 23.689-9.82c3.9 2.984 7.823 5.934 11.688 8.793 8.558 6.332 20.699 5.417 28.238-2.124l18.896-18.893c7.541-7.54 8.457-19.681 2.125-28.241a920.557 920.557 0 0 0-8.79-11.687 127.481 127.481 0 0 0 9.818-23.69c4.89-.654 9.748-1.34 14.476-2.047 10.526-1.576 18.466-10.805 18.466-21.47V232.12c-.002-10.664-7.94-19.894-18.466-21.47zm-7.56 44.473a904.076 904.076 0 0 1-13.069 1.8c-8.693 1.135-15.811 7.305-18.127 15.717a101.322 101.322 0 0 1-9.573 23.103c-4.316 7.594-3.65 16.991 1.696 23.944a938.833 938.833 0 0 1 7.972 10.518l-13.632 13.633a916.808 916.808 0 0 1-10.521-7.972c-6.949-5.349-16.349-6.01-23.944-1.699a101.354 101.354 0 0 1-23.1 9.575c-8.417 2.319-14.587 9.436-15.718 18.127a888.686 888.686 0 0 1-1.801 13.071h-19.28a953.892 953.892 0 0 1-1.8-13.066c-1.135-8.695-7.304-15.812-15.719-18.131a101.31 101.31 0 0 1-23.102-9.573c-7.595-4.315-16.995-3.651-23.943 1.696a902.434 902.434 0 0 1-10.522 7.972l-13.631-13.633a882.529 882.529 0 0 1 7.974-10.522c5.343-6.951 6.009-16.348 1.694-23.942a101.28 101.28 0 0 1-9.573-23.102c-2.318-8.415-9.434-14.584-18.127-15.719a900.464 900.464 0 0 1-13.071-1.801v-19.278a904.076 904.076 0 0 1 13.069-1.8c8.693-1.134 15.811-7.305 18.127-15.717a101.359 101.359 0 0 1 9.573-23.104c4.316-7.594 3.65-16.992-1.693-23.943-2.7-3.51-5.373-7.036-7.973-10.519l13.631-13.632a922.02 922.02 0 0 1 10.519 7.97c6.947 5.349 16.347 6.016 23.947 1.7a101.34 101.34 0 0 1 23.1-9.574c8.417-2.319 14.588-9.436 15.719-18.127a916.342 916.342 0 0 1 1.801-13.07h19.28a901.79 901.79 0 0 1 1.799 13.066c1.135 8.695 7.305 15.812 15.719 18.129a101.32 101.32 0 0 1 23.103 9.575c7.597 4.316 16.995 3.646 23.942-1.698a910.856 910.856 0 0 1 10.522-7.971l13.631 13.632a896.54 896.54 0 0 1-7.973 10.522c-5.344 6.95-6.009 16.347-1.695 23.941a101.389 101.389 0 0 1 9.573 23.103c2.317 8.415 9.433 14.584 18.126 15.718 4.396.574 8.777 1.177 13.071 1.801v19.28h-.001zm-129.457-65.105c-30.582 0-55.464 24.881-55.464 55.464 0 30.584 24.881 55.465 55.464 55.465s55.464-24.88 55.464-55.465c-.001-30.584-24.881-55.464-55.464-55.464zm0 86.273c-16.986 0-30.81-13.821-30.81-30.81 0-16.989 13.822-30.81 30.81-30.81s30.808 13.822 30.81 30.81c-.001 16.988-13.823 30.81-30.81 30.81z" fill="currentColor"/></svg>