<svg xmlns="http://www.w3.org/2000/svg" width="611.999" height="538.238" viewBox="0 126.881 611.999 538.238"><path d="M537.551 376.686c-.648-9.006-8.465-15.767-17.484-15.134-9.008.649-15.783 8.477-15.136 17.485.403 5.564.605 11.273.605 16.963 0 130.362-106.056 236.417-236.416 236.417C138.759 632.417 32.704 526.36 32.704 396c0-130.361 106.056-236.416 236.417-236.416 51.627 0 100.657 16.337 141.788 47.245 7.221 5.424 17.47 3.97 22.895-3.249 5.427-7.219 3.973-17.47-3.247-22.895-46.844-35.198-102.667-53.803-161.437-53.803C120.728 126.88 0 247.608 0 396c0 148.393 120.728 269.119 269.121 269.119S538.239 544.394 538.239 396a270.6 270.6 0 0 0-.688-19.314zm55.796-212.852c-24.872-24.871-65.343-24.871-90.215 0L267.524 399.44l-83.521-83.523c-24.872-24.871-65.343-24.871-90.215 0-24.872 24.872-24.872 65.343 0 90.215l143.845 143.845c8.242 8.242 19.066 12.362 29.891 12.362 10.826 0 21.651-4.12 29.893-12.362l295.93-295.931c24.87-24.87 24.87-65.338 0-90.212zm-23.124 67.09L274.291 526.856c-3.729 3.729-9.801 3.729-13.531 0L116.915 383.011c-12.122-12.122-12.122-31.843 0-43.965 6.061-6.063 14.02-9.092 21.982-9.092s15.923 3.03 21.982 9.092l85.921 85.921c5.537 5.536 12.898 8.584 20.726 8.584 7.831 0 15.192-3.049 20.728-8.585l238.004-238.007c12.118-12.122 31.843-12.122 43.965 0 12.12 12.122 12.12 31.843 0 43.965z" fill="currentColor"/></svg>