<svg xmlns="http://www.w3.org/2000/svg" width="495.646" height="612" viewBox="58.176 90 495.646 612"><path d="M528.847 152.17L329.645 93.422a83.413 83.413 0 0 0-47.29 0l-199.2 58.747c-14.707 4.336-24.979 18.073-24.979 33.407v164.97c0 76.347 22.727 149.862 65.723 212.599 41.977 61.251 100.396 108.373 168.934 136.266 4.246 1.727 8.707 2.591 13.167 2.591s8.922-.865 13.166-2.591c68.538-27.893 126.957-75.012 168.934-136.266 42.996-62.737 65.723-136.252 65.723-212.599V185.577c.001-15.333-10.27-29.071-24.976-33.407zm-2.886 198.374c0 70.7-21.039 138.768-60.842 196.845-38.884 56.737-92.983 100.38-156.453 126.21a7.038 7.038 0 0 1-5.331 0c-63.47-25.83-117.571-69.472-156.453-126.21C107.08 489.312 86.04 421.245 86.04 350.544V185.576c0-3.066 2.055-5.813 4.996-6.681l199.201-58.749a55.69 55.69 0 0 1 15.764-2.281c5.303 0 10.606.76 15.763 2.282l199.204 58.747c2.938.866 4.993 3.613 4.993 6.681v164.969zm-65.586-136.763l-148.466-43.785a20.841 20.841 0 0 0-11.819 0l-148.461 43.785c-8.824 2.603-14.988 10.846-14.988 20.045v116.719c0 61.676 18.656 120.831 53.949 171.075 27.363 38.959 63.926 71.124 105.735 93.02a20.851 20.851 0 0 0 19.353 0c41.807-21.895 78.37-54.062 105.734-93.02 35.293-50.242 53.949-109.399 53.949-171.076V233.826c-.001-9.201-6.164-17.443-14.986-20.045zm-12.876 136.763c0 55.914-16.904 109.533-48.885 155.06-24.112 34.325-56.075 62.828-92.613 82.62-36.538-19.794-68.502-48.295-92.613-82.62-31.98-45.527-48.885-99.146-48.885-155.06v-111.51l141.498-41.731 141.498 41.731v111.51z" fill="currentColor"/></svg>