<svg xmlns="http://www.w3.org/2000/svg" width="612" height="611.998" viewBox="0 90 612 611.998"><path d="M584.718 336.899a1868.746 1868.746 0 0 0-35.117-4.914c-1.428-.185-2.588-1.154-2.948-2.467a248.35 248.35 0 0 0-23.472-56.645c-.681-1.198-.553-2.708.326-3.853a1883.752 1883.752 0 0 0 21.368-28.317c9.352-12.644 7.994-30.586-3.156-41.737l-38.688-38.688c-11.15-11.15-29.092-12.508-41.737-3.153a1884.69 1884.69 0 0 0-28.316 21.366c-1.141.88-2.654 1.008-3.853.328a248.452 248.452 0 0 0-56.645-23.473c-1.313-.359-2.283-1.519-2.47-2.951a1898.128 1898.128 0 0 0-4.911-35.113C362.772 101.729 349.126 90 333.356 90h-54.713c-15.771 0-29.417 11.729-31.741 27.282a1891.184 1891.184 0 0 0-4.913 35.117c-.188 1.431-1.156 2.588-2.471 2.949a248.47 248.47 0 0 0-56.643 23.473c-1.199.68-2.712.549-3.854-.328a1881.418 1881.418 0 0 0-28.317-21.367c-12.647-9.354-30.588-7.993-41.737 3.155l-38.688 38.688c-11.151 11.152-12.508 29.095-3.153 41.738a1890.963 1890.963 0 0 0 21.366 28.314c.878 1.142 1.007 2.654.327 3.853a248.391 248.391 0 0 0-23.472 56.645c-.36 1.311-1.52 2.28-2.949 2.468a1889.827 1889.827 0 0 0-35.116 4.914C11.729 339.226 0 352.874 0 368.642v54.714c0 15.77 11.729 29.417 27.282 31.743a1883.968 1883.968 0 0 0 35.117 4.912c1.431.188 2.588 1.156 2.949 2.47a248.402 248.402 0 0 0 23.473 56.645c.68 1.199.551 2.711-.328 3.853a1887.41 1887.41 0 0 0-21.366 28.316c-9.354 12.644-7.998 30.587 3.153 41.738l38.688 38.688c11.152 11.15 29.095 12.509 41.738 3.152a1884.69 1884.69 0 0 0 28.316-21.366c1.142-.879 2.655-1.006 3.853-.327a248.467 248.467 0 0 0 56.645 23.473c1.313.36 2.283 1.52 2.469 2.948a1895.752 1895.752 0 0 0 4.913 35.114c2.326 15.555 15.972 27.283 31.743 27.283h54.713c15.77 0 29.417-11.729 31.742-27.286a1912.178 1912.178 0 0 0 4.911-35.113c.188-1.431 1.156-2.589 2.47-2.951a248.497 248.497 0 0 0 56.644-23.473c1.198-.678 2.711-.549 3.854.328a1891.432 1891.432 0 0 0 28.315 21.366c12.645 9.353 30.586 7.997 41.738-3.153l38.688-38.688c11.15-11.151 12.508-29.093 3.154-41.738a1916.327 1916.327 0 0 0-21.367-28.315c-.879-1.142-1.008-2.654-.326-3.853a248.452 248.452 0 0 0 23.471-56.644c.363-1.315 1.521-2.283 2.951-2.471 11.79-1.538 23.605-3.19 35.116-4.913C600.271 452.77 612 439.123 612 423.354v-54.715c0-15.766-11.729-29.414-27.282-31.74zm-1.295 86.46c0 1.732-1.261 3.227-2.933 3.479a1881.18 1881.18 0 0 1-34.583 4.838c-12.859 1.677-23.38 10.787-26.806 23.214a219.852 219.852 0 0 1-20.769 50.121c-6.375 11.224-5.384 25.116 2.524 35.396a1863.636 1863.636 0 0 1 21.042 27.885c1.007 1.359.839 3.311-.386 4.535l-38.688 38.688c-1.227 1.227-3.177 1.391-4.534.388a1880.523 1880.523 0 0 1-27.887-21.044c-10.278-7.909-24.171-8.9-35.393-2.526a219.87 219.87 0 0 1-50.124 20.771c-12.424 3.425-21.534 13.946-23.214 26.807a1856.006 1856.006 0 0 1-4.838 34.583c-.25 1.672-1.746 2.932-3.479 2.932h-54.713c-1.733 0-3.23-1.26-3.479-2.934a1868.4 1868.4 0 0 1-4.837-34.58c-1.677-12.86-10.791-23.382-23.214-26.806a219.88 219.88 0 0 1-50.125-20.772 31.904 31.904 0 0 0-15.773-4.173 32.116 32.116 0 0 0-19.617 6.702 1878.699 1878.699 0 0 1-27.887 21.043c-1.36 1.003-3.308.84-4.533-.387l-38.689-38.688c-1.226-1.227-1.394-3.175-.387-4.534a1860.756 1860.756 0 0 1 21.042-27.887c7.907-10.279 8.899-24.17 2.527-35.392a219.865 219.865 0 0 1-20.771-50.125c-3.425-12.424-13.946-21.536-26.805-23.213a1886.028 1886.028 0 0 1-34.585-4.839c-1.672-.251-2.932-1.746-2.932-3.479v-54.714c0-1.733 1.26-3.229 2.932-3.479a1878.375 1878.375 0 0 1 34.583-4.839c12.86-1.676 23.381-10.788 26.806-23.213a219.741 219.741 0 0 1 20.771-50.125c6.373-11.223 5.381-25.115-2.526-35.392a1876.475 1876.475 0 0 1-21.042-27.887c-1.004-1.359-.838-3.31.387-4.534l38.687-38.689c1.224-1.226 3.173-1.39 4.533-.387 9.2 6.806 18.583 13.886 27.887 21.043 10.28 7.906 24.17 8.899 35.395 2.524a219.836 219.836 0 0 1 50.122-20.771c12.425-3.425 21.539-13.946 23.216-26.807a1874.78 1874.78 0 0 1 4.838-34.584c.25-1.669 1.747-2.931 3.479-2.931h54.713c1.733 0 3.23 1.26 3.479 2.932a1856.633 1856.633 0 0 1 4.839 34.583c1.678 12.861 10.79 23.382 23.215 26.807a219.926 219.926 0 0 1 50.124 20.771c11.222 6.371 25.113 5.381 35.391-2.527a1882.065 1882.065 0 0 1 27.886-21.042c1.359-1.006 3.31-.84 4.535.387l38.688 38.688c1.227 1.227 1.392 3.176.387 4.534a1835.12 1835.12 0 0 1-21.042 27.887c-7.907 10.281-8.899 24.173-2.524 35.396a219.836 219.836 0 0 1 20.771 50.123c3.424 12.424 13.947 21.535 26.803 23.21a1882.686 1882.686 0 0 1 34.586 4.839c1.672.251 2.932 1.746 2.932 3.479v54.713h-.005zM306.001 263.161c-73.249 0-132.84 59.591-132.84 132.84s59.591 132.84 132.84 132.84 132.84-59.591 132.84-132.84-59.591-132.84-132.84-132.84zm0 237.101c-57.491 0-104.262-46.771-104.262-104.261 0-57.491 46.772-104.262 104.262-104.262s104.261 46.771 104.261 104.262c0 57.489-46.771 104.261-104.261 104.261z" fill="currentColor"/></svg>