<svg xmlns="http://www.w3.org/2000/svg" width="612" height="611.897" viewBox="0 90.051 612 611.897"><path d="M546.978 154.971c-86.562-86.56-227.402-86.56-313.962 0-41.933 41.93-65.024 97.682-65.024 156.981 0 54.02 19.171 105.088 54.283 145.456l-26.439 26.438-26.944-26.944a15.749 15.749 0 0 0-22.266 0l-126.24 126.24C7.24 596.285 0 613.762 0 632.353c0 18.59 7.24 36.067 20.384 49.211 13.146 13.146 30.623 20.385 49.211 20.385s36.067-7.239 49.211-20.384l126.239-126.236a15.744 15.744 0 0 0 0-22.267L218.1 506.117l26.448-26.447c41.588 36.116 93.514 54.185 145.448 54.185 56.85 0 113.701-21.641 156.981-64.919C588.906 427.004 612 371.255 612 311.955c0-59.303-23.091-115.054-65.022-156.984zM96.54 659.298c-7.197 7.196-16.766 11.16-26.945 11.16-10.178 0-19.748-3.965-26.945-11.162-7.196-7.195-11.161-16.765-11.161-26.942s3.965-19.747 11.162-26.944l70.444-70.444 53.89 53.887-70.445 70.445zm92.714-92.714l-53.89-53.89 22.393-22.393 53.89 53.891-22.393 22.392zM524.71 446.667c-74.281 74.284-195.146 74.284-269.427 0-35.983-35.983-55.801-83.825-55.801-134.714s19.817-98.73 55.801-134.713c37.141-37.141 85.927-55.712 134.714-55.712 48.785 0 97.573 18.569 134.714 55.712 35.984 35.983 55.801 83.825 55.801 134.713 0 50.888-19.819 98.731-55.802 134.714zm-25.985-243.446c-59.954-59.952-157.505-59.955-217.459 0-59.952 59.955-59.952 157.505.001 217.459 29.978 29.975 69.352 44.964 108.729 44.964 39.377 0 78.753-14.989 108.73-44.964v-.001c59.953-59.951 59.953-157.503-.001-217.458zm-22.267 195.193c-47.677 47.677-125.249 47.677-172.925.002-47.676-47.677-47.676-125.25-.001-172.926 23.84-23.841 55.147-35.756 86.464-35.756 31.309 0 62.627 11.922 86.461 35.756 47.677 47.675 47.677 125.248.001 172.924zm-27.832-145.091c-32.331-32.327-84.931-32.327-117.261 0-6.148 6.149-6.148 16.118 0 22.269 6.149 6.149 16.118 6.149 22.27 0 20.048-20.05 52.675-20.05 72.725 0a15.693 15.693 0 0 0 11.134 4.612c4.029 0 8.06-1.537 11.133-4.612 6.147-6.149 6.147-16.119-.001-22.269z" fill="currentColor"/></svg>