<svg xmlns="http://www.w3.org/2000/svg" width="650" height="618.07" viewBox="0 15.965 650 618.07"><path d="M641.145 24.818c-18.646-18.644-56.044-8.007-117.695 33.487-52.373 35.25-115.194 88.637-176.892 150.334-91.466 91.464-161.005 181.269-184.159 236.714a80.731 80.731 0 0 0-11.841-3.292c-23.958-4.738-49.98 1.32-71.396 16.613-30.731 21.945-38.871 53.284-40.052 58.566-6.47 24.161-18.722 47.215-35.447 66.688-5.379 6.262-4.765 15.677 1.384 21.189 21.489 19.259 48.979 28.918 77.571 28.918 27.557 0 56.139-8.974 81.348-26.976 11.821-8.441 20.77-17.774 22.502-19.622 21.42-23.018 30.515-53.198 26.003-80.773 54.399-19.502 149.237-91.637 244.856-187.255 61.696-61.697 115.085-124.52 150.334-176.892 41.491-61.653 52.131-99.051 33.484-117.699zm-476.878 541.92c-.815.869-8.246 8.698-17.938 15.617-35.207 25.137-78.31 28.044-109.618 8.69 14.662-20.103 25.558-42.762 31.818-66.339v-.001c.07-.264.133-.53.189-.8.052-.24 5.323-24.282 28.081-40.532 14.638-10.454 32.09-14.659 47.875-11.539 13.019 2.572 23.964 10.004 30.818 20.922 13.451 21.427 8.722 52.549-11.225 73.982zm37.864-88.552c-.311-.521-4.913-9.864-13.487-16.809 7.387-19.75 23.291-46.444 45.457-77.098l47.55 47.551c-33.451 24.079-60.862 39.775-79.52 46.356zm104.077-64.719l-53.702-53.702c9.28-11.946 19.321-24.32 30.022-36.978l60.691 60.691c-12.845 10.848-25.215 20.859-37.011 29.989zm271.631-281.098c-34.184 49.405-84.605 108.208-141.975 165.575-24.087 24.087-47.438 45.998-69.626 65.626l-63.803-63.802c20.236-22.892 42.301-46.386 65.585-69.668 57.367-57.369 116.171-107.79 165.575-141.977 60.83-42.091 81.821-42.158 85.854-41.607.553 4.028.48 25.026-41.61 85.853zm-426.44 393.368c-7.342-4.041-16.57-1.366-20.612 5.977a10.925 10.925 0 0 1-1.47 2.064c-1.135 1.181-4.865 4.786-8.739 7.555-5.878 4.196-12.221 7.203-18.853 8.938-8.108 2.122-12.961 10.414-10.839 18.522 1.785 6.82 7.935 11.337 14.669 11.337 1.272 0 2.563-.161 3.852-.496 10.219-2.674 19.912-7.249 28.81-13.602 5.712-4.079 13.293-11.547 13.345-11.604a41.278 41.278 0 0 0 5.818-8.082c4.039-7.341 1.362-16.57-5.981-20.609z" fill="currentColor"/></svg>