<svg xmlns="http://www.w3.org/2000/svg" width="612.002" height="612" viewBox="0 90 612.002 612"><path d="M562.894 491.708c-37.47 0-74.26-5.86-109.123-17.382-17.083-5.826-38.084-.481-48.51 10.228L336.447 536.5c-79.804-42.6-128.962-91.741-170.979-170.945l50.418-67.021c13.099-13.082 17.797-32.19 12.168-50.12-11.571-35.047-17.449-71.819-17.449-109.304C210.608 112.03 188.577 90 161.5 90H49.108C22.03 90 0 112.03 0 139.108 0 449.491 252.511 702 562.894 702c27.077 0 49.108-22.03 49.108-49.108V540.814c-.002-27.076-22.032-49.106-49.108-49.106z" fill="currentColor"/></svg>