<svg data-name="Layer 1" xmlns="http://www.w3.org/2000/svg" viewBox="0 0 480.02 428"><path d="M394.66 138.72q-7.67-2.62-15.45-4.88 1.29-5.25 2.38-10.56c11.7-56.9 4.05-102.74-22.06-117.83-25-14.48-66 .61-107.36 36.69q-6.1 5.34-11.95 11-3.9-3.77-8-7.36C188.87 7.2 145.42-9 119.34 6.09c-25 14.51-32.43 57.6-21.9 111.53q1.57 8 3.55 15.93a320.85 320.85 0 0 0-17.77 5.6C32.46 156.9 0 184.73 0 213.59c0 29.82 34.84 59.72 87.77 77.85q6.44 2.19 13 4.07Q98.64 304 97 312.68c-10 53-2.2 95.07 22.75 109.49 25.77 14.89 69-.41 111.14-37.31q5-4.38 10-9.25 6.31 6.11 13 11.86c40.8 35.18 81.09 49.39 106 34.93 25.75-14.94 34.12-60.14 23.25-115.13q-1.25-6.3-2.88-12.86 4.56-1.35 8.93-2.79c55-18.27 90.83-47.81 90.83-78-.02-29-33.52-57.01-85.36-74.9zm-129-81.08c35.43-30.91 68.55-43.11 83.65-34.39 16.07 9.29 22.32 46.75 12.22 95.88q-1 4.8-2.16 9.57a488.07 488.07 0 0 0-64.18-10.16 480.58 480.58 0 0 0-40.57-50.75q5.38-5.22 11.02-10.15zm-139.18 90.65c13.7-3.07 28.3-5.58 43.52-7.48q-7.65 11.94-14.72 24.23t-13.56 24.85c-6-14.18-11.07-28.13-15.24-41.6zm15.25 90q6.51 12.6 13.61 24.89 7.23 12.54 15.07 24.71a432 432 0 0 1-44.24-7.13c4.24-13.76 9.46-28.01 15.56-42.51zm10.87-24.16q9.48-19.77 20.42-38.78t23.27-37.13c14.28-1.08 28.92-1.65 43.71-1.65s29.52.57 43.79 1.66q12.21 18.09 23.13 37t20.69 38.6Q318 233.64 307 252.73T284 290c-14.25 1-29 1.55-44 1.55s-29.47-.47-43.46-1.38q-12.43-18.19-23.46-37.29t-20.48-38.79zM324.75 263q7.25-12.58 13.92-25.49a438.46 438.46 0 0 1 16.12 42.32 435.47 435.47 0 0 1-44.79 7.65q7.62-12.09 14.75-24.48zm13.72-73.07q-6.64-12.65-13.81-25-7-12.18-14.59-24.06c15.31 1.94 30 4.52 43.77 7.67a440.9 440.9 0 0 1-15.37 41.39zM240.23 82.48a439.69 439.69 0 0 1 28.25 34.18q-28.35-1.35-56.74 0c9.33-12.34 18.88-23.79 28.49-34.18zM129.66 23.86c16.06-9.32 51.57 4 89 37.27 2.39 2.13 4.8 4.36 7.2 6.67A490.1 490.1 0 0 0 185 118.51a498.37 498.37 0 0 0-64.06 10q-1.83-7.36-3.3-14.82c-9.05-46.23-3.06-81.08 12.02-89.83zm-23.41 251.85q-6-1.71-11.85-3.71c-23.4-8-42.73-18.44-56-29.81-11.88-10.19-17.9-20.36-17.9-28.6 0-17.51 26.06-39.85 69.52-55q8.19-2.85 16.52-5.21a492.58 492.58 0 0 0 23.4 60.75 502.69 502.69 0 0 0-23.69 61.58zm111.13 93.67c-18.63 16.32-37.29 27.89-53.74 33.72-14.78 5.23-26.55 5.38-33.66 1.27-15.14-8.75-21.44-42.54-12.85-87.86q1.53-8 3.5-16a481.75 481.75 0 0 0 64.69 9.39 501.86 501.86 0 0 0 41.2 51q-4.47 4.39-9.14 8.48zm23.42-23.22c-9.72-10.51-19.42-22.14-28.88-34.64q13.79.54 28.08.54 14.67 0 29-.64a439 439 0 0 1-28.2 34.74zm124.52 28.59c-2.86 15.44-8.61 25.74-15.72 29.86-15.13 8.78-47.48-2.63-82.36-32.72-4-3.44-8-7.13-12.07-11a484.73 484.73 0 0 0 40.23-51.2 477.23 477.23 0 0 0 65-10.05q1.47 5.94 2.6 11.64c4.81 24.3 5.5 46.28 2.32 63.47zm17.4-102.64c-2.62.87-5.32 1.71-8.06 2.53a483.5 483.5 0 0 0-24.31-60.94 481.48 481.48 0 0 0 23.36-60.06c4.91 1.43 9.68 2.93 14.27 4.52 44.42 15.32 71.52 38 71.52 55.43 0 18.6-29.27 42.74-76.78 58.52zM242 240a26.47 26.47 0 1 0-28.26-24.54v.08A26.4 26.4 0 0 0 242 240z" fill="currentColor" /></svg>