<svg xmlns="http://www.w3.org/2000/svg" width="612" height="612" viewBox="0 90 612 612"><path d="M431.322 472.912c29.991-40.022 47.988-89.517 47.988-143.257C479.311 197.502 371.809 90 239.655 90 107.502 90 0 197.502 0 329.655 0 461.808 107.502 569.31 239.655 569.31c53.74 0 103.234-17.997 143.257-47.988L563.59 702 612 653.59 431.322 472.912zm-191.667 73.574c-119.565 0-216.831-97.266-216.831-216.831 0-119.565 97.266-216.831 216.831-216.831 119.565 0 216.831 97.266 216.831 216.831 0 119.566-97.265 216.831-216.831 216.831zm323.923 123.252L400.829 506.966c1.77-1.608 3.344-3.412 5.067-5.066a248.837 248.837 0 0 0 5.991-5.991c1.666-1.724 3.47-3.31 5.078-5.079l162.762 162.76-16.149 16.148z" fill="currentColor"/></svg>