<svg xmlns="http://www.w3.org/2000/svg" width="512" height="512"><path d="M279.894 512h-47.787c-16.169-.015-29.78-12.105-31.701-28.16l-5.099-40.021a201.526 201.526 0 0 1-29.312-12.139l-31.872 24.769c-12.741 10.016-30.974 8.858-42.347-2.688l-33.6-33.6c-11.483-11.361-12.603-29.533-2.603-42.219l24.768-31.894a196.997 196.997 0 0 1-12.139-29.312l-40.106-5.1C12.064 309.657.018 296.047 0 279.894v-47.787c0-16.149 12.096-29.781 28.16-31.701l40.021-5.099a201.637 201.637 0 0 1 12.139-29.312l-24.747-31.872c-10.042-12.744-8.875-31.007 2.709-42.368l33.6-33.6c11.365-11.474 29.53-12.593 42.219-2.603l31.872 24.79a200.857 200.857 0 0 1 29.333-12.139l5.099-40.106C202.325 12.096 215.958 0 232.106 0h47.787c16.149 0 29.781 12.096 31.701 28.16l5.099 40.021a200.822 200.822 0 0 1 29.333 12.139l31.872-24.768c12.74-10.03 30.988-8.862 42.347 2.709l33.601 33.6c11.456 11.115 12.607 29.312 2.603 42.219l-24.769 31.893a196.904 196.904 0 0 1 12.139 29.312l40.107 5.099c16.02 1.98 28.057 15.581 28.074 31.723v47.787c0 16.149-12.096 29.781-28.16 31.701l-40.021 5.099a201.526 201.526 0 0 1-12.139 29.312l24.769 31.871c10.029 12.74 8.862 30.988-2.71 42.347l-33.6 33.601c-11.356 11.492-29.536 12.613-42.219 2.603l-31.894-24.769a196.846 196.846 0 0 1-29.312 12.139l-5.099 40.107c-1.969 16.027-15.573 28.075-31.721 28.095zM164.907 408.32a10.8 10.8 0 0 1 5.205 1.344 179.01 179.01 0 0 0 37.846 15.701 10.666 10.666 0 0 1 7.637 8.896l5.973 46.933c.64 5.354 5.27 9.473 10.539 9.473h47.787a10.75 10.75 0 0 0 10.517-9.365l5.995-47.02a10.667 10.667 0 0 1 7.638-8.896 179.128 179.128 0 0 0 37.845-15.701 10.643 10.643 0 0 1 11.733.896l37.334 29.014a10.495 10.495 0 0 0 13.973-.726l33.813-33.813a10.56 10.56 0 0 0 .832-14.079l-29.014-37.334a10.666 10.666 0 0 1-.896-11.733 179.076 179.076 0 0 0 15.701-37.845 10.667 10.667 0 0 1 8.896-7.638l46.933-5.974a10.816 10.816 0 0 0 9.473-10.56v-47.787a10.75 10.75 0 0 0-9.365-10.517l-47.02-5.995a10.668 10.668 0 0 1-8.896-7.637 179.136 179.136 0 0 0-15.701-37.846 10.6 10.6 0 0 1 .896-11.733l29.014-37.333a10.454 10.454 0 0 0-.704-13.952L405.077 73.28a10.496 10.496 0 0 0-14.08-.832l-37.333 29.013a10.669 10.669 0 0 1-11.755.896 178.341 178.341 0 0 0-37.845-15.701 10.667 10.667 0 0 1-7.638-8.896l-5.974-46.933a10.815 10.815 0 0 0-10.56-9.493h-47.787a10.75 10.75 0 0 0-10.517 9.365l-5.995 47.019a10.708 10.708 0 0 1-7.637 8.917 178.25 178.25 0 0 0-37.846 15.68 10.664 10.664 0 0 1-11.754-.875l-37.333-29.013a10.453 10.453 0 0 0-13.952.704l-33.813 33.834a10.56 10.56 0 0 0-.832 14.08l29.013 37.333a10.666 10.666 0 0 1 .896 11.733 177.974 177.974 0 0 0-15.701 37.846 10.668 10.668 0 0 1-8.896 7.637l-46.934 5.973a10.774 10.774 0 0 0-9.472 10.539v47.787c0 5.269 4.117 9.898 9.365 10.517l47.019 5.995a10.667 10.667 0 0 1 8.896 7.638c3.84 13.354 9.131 26.09 15.701 37.846a10.599 10.599 0 0 1-.896 11.732l-29.013 37.334a10.453 10.453 0 0 0 .704 13.951l33.813 33.813a10.539 10.539 0 0 0 14.08.832l37.333-29.013a11 11 0 0 1 6.573-2.218zM256 362.666c-58.816 0-106.667-47.85-106.667-106.666 0-58.816 47.851-106.667 106.667-106.667S362.667 197.184 362.667 256 314.816 362.666 256 362.666zm0-191.999c-47.062 0-85.333 38.272-85.333 85.333s38.272 85.334 85.333 85.334 85.333-38.272 85.333-85.334-38.271-85.333-85.333-85.333z" fill="currentColor"/></svg>