<svg xmlns="http://www.w3.org/2000/svg" width="1708" height="1708"><path d="M225.217 305.222a30.484 30.484 0 0 1 14.115 7.996L674.216 748.11l78.691-78.685-434.89-434.891a30.531 30.531 0 0 1-8.005-14.15l-27.371-109.108L101.198 7.543 12.346 96.391 116.109 277.96l109.108 27.262zm386.714 991.998l690.092-690.104a30.445 30.445 0 0 1 28.897-8.02c90.858 23.286 187.367 3.107 261.314-54.586 73.96-57.697 116.98-146.424 116.484-240.215 0-5.712-.168-11.467-.539-17.273L1547.671 447.51a30.416 30.416 0 0 1-31.127 7.349l-182.557-60.86a30.377 30.377 0 0 1-19.253-19.222l-60.845-182.561a30.405 30.405 0 0 1 7.349-31.131L1421.742.585c-96.653-6.013-190.358 34.594-252.093 109.202-61.727 74.624-84.033 174.275-60.024 268.082a30.406 30.406 0 0 1-7.996 28.913l-690.08 690.057a30.698 30.698 0 0 1-28.905 8.013 300.488 300.488 0 0 0-73.55-9.465c-131.041-.863-248.125 81.745-291.271 205.507-43.122 123.751-2.737 261.241 100.468 342.011s246.369 86.946 356.133 15.337c109.771-71.605 161.819-205.109 129.47-332.124-2.572-10.367.469-21.35 8.037-28.898zm-228.775 224.143h-148.1l-73.042-121.7 73.042-121.72h148.1l73.026 121.72-73.026 121.7zm117.425-356.207l669.378-669.386 43.017 43.024-669.379 669.386-43.016-43.024zm958.653 526.969c67.771 25.48 144.179 8.957 195.379-42.239 51.204-51.212 67.732-127.632 42.239-195.388l-237.618 237.627zm195.383-303.535l-341.736-341.873c-37.694 31.685-93.357 29.275-128.197-5.521-34.845-34.789-37.301-90.437-5.67-128.17l-48.396-48.455-261.241 261.252 48.689 48.686c37.694-31.686 93.365-29.284 128.187 5.502 34.84 34.797 37.312 90.452 5.677 128.189l341.448 341.628c3.725 3.725 7.656 7.176 11.627 10.534l260.156-260.155c-3.351-3.979-6.819-7.896-10.544-11.617zm-180.397 123.851l-304.261-304.261 43.017-43.024 304.269 304.277-43.025 43.008z" fill="currentColor"/></svg>