<?xml version="1.0" encoding="utf-8"?>
<!-- Generator: Adobe Illustrator 16.0.0, SVG Export Plug-In . SVG Version: 6.00 Build 0)  -->
<!DOCTYPE svg PUBLIC "-//W3C//DTD SVG 1.1//EN" "http://www.w3.org/Graphics/SVG/1.1/DTD/svg11.dtd">
<svg version="1.1" id="Capa_1" xmlns="http://www.w3.org/2000/svg" xmlns:xlink="http://www.w3.org/1999/xlink" x="0px" y="0px"
	 width="612px" height="612px" viewBox="0 90 612 612" enable-background="new 0 90 612 612" xml:space="preserve">
<path d="M548.25,90H386.503c-30.651,0-59.492,11.934-81.167,33.608L21.751,407.221C7.931,421.041,0,440.166,0,459.801
	c0,19.533,7.931,38.658,21.751,52.479l167.994,167.994C203.542,694.069,222.667,702,242.301,702
	c19.532,0,38.657-7.931,52.479-21.751l283.611-283.61C600.066,374.988,612,346.147,612,315.497V153.75
	C612,118.586,583.414,90,548.25,90z M471.75,294c-35.164,0-63.749-28.586-63.749-63.75c0-35.165,28.586-63.75,63.749-63.75
	c35.164,0,63.75,28.585,63.75,63.749C535.5,265.415,506.914,294,471.75,294z"/>
</svg>
